<svg width="20" height="20" viewBox="0 0 20 20" fill="none" xmlns="http://www.w3.org/2000/svg">
<g clip-path="url(#clip0_0_440)">
<path d="M20.0009 9.37297C19.8804 7.42299 19.1919 5.5509 18.0203 3.98749C16.8486 2.42409 15.2451 1.23771 13.4074 0.574632C11.5696 -0.0884492 9.57802 -0.199252 7.67807 0.255883C5.77812 0.711018 4.05289 1.71219 2.71507 3.13599C1.37724 4.55978 0.485308 6.34394 0.149226 8.26852C-0.186857 10.1931 0.0476043 12.174 0.823704 13.9669C1.5998 15.7598 2.88361 17.2865 4.51686 18.3586C6.15011 19.4307 8.0614 20.0015 10.0151 20.0005H15.8343C16.939 19.9994 17.9982 19.56 18.7793 18.7789C19.5605 17.9977 19.9998 16.9385 20.0009 15.8338V9.37297ZM18.3343 15.8338C18.3343 16.4968 18.0709 17.1327 17.602 17.6016C17.1332 18.0704 16.4973 18.3338 15.8343 18.3338H10.0151C8.83922 18.3333 7.67664 18.0849 6.60319 17.6049C5.52973 17.1249 4.5695 16.424 3.78511 15.548C2.99692 14.6724 2.40505 13.6384 2.04919 12.5153C1.69332 11.3922 1.58169 10.206 1.72177 9.0363C1.94297 7.19125 2.77193 5.47229 4.07797 4.15041C5.38402 2.82852 7.09286 1.97889 8.93511 1.73547C9.29447 1.69043 9.65627 1.66761 10.0184 1.66714C11.9605 1.66184 13.8424 2.34039 15.3343 3.5838C16.2055 4.30792 16.9207 5.20143 17.4364 6.21016C17.9521 7.21889 18.2575 8.32184 18.3343 9.45214V15.8338Z" fill="#242A2D"/>
<path d="M6.66536 7.50065H9.9987C10.2197 7.50065 10.4317 7.41285 10.588 7.25657C10.7442 7.10029 10.832 6.88833 10.832 6.66732C10.832 6.4463 10.7442 6.23434 10.588 6.07806C10.4317 5.92178 10.2197 5.83398 9.9987 5.83398H6.66536C6.44435 5.83398 6.23239 5.92178 6.07611 6.07806C5.91983 6.23434 5.83203 6.4463 5.83203 6.66732C5.83203 6.88833 5.91983 7.10029 6.07611 7.25657C6.23239 7.41285 6.44435 7.50065 6.66536 7.50065Z" fill="#242A2D"/>
<path d="M13.332 9.16602H6.66536C6.44435 9.16602 6.23239 9.25381 6.07611 9.41009C5.91983 9.56638 5.83203 9.77834 5.83203 9.99935C5.83203 10.2204 5.91983 10.4323 6.07611 10.5886C6.23239 10.7449 6.44435 10.8327 6.66536 10.8327H13.332C13.553 10.8327 13.765 10.7449 13.9213 10.5886C14.0776 10.4323 14.1654 10.2204 14.1654 9.99935C14.1654 9.77834 14.0776 9.56638 13.9213 9.41009C13.765 9.25381 13.553 9.16602 13.332 9.16602Z" fill="#242A2D"/>
<path d="M13.332 12.5H6.66536C6.44435 12.5 6.23239 12.5878 6.07611 12.7441C5.91983 12.9004 5.83203 13.1123 5.83203 13.3333C5.83203 13.5544 5.91983 13.7663 6.07611 13.9226C6.23239 14.0789 6.44435 14.1667 6.66536 14.1667H13.332C13.553 14.1667 13.765 14.0789 13.9213 13.9226C14.0776 13.7663 14.1654 13.5544 14.1654 13.3333C14.1654 13.1123 14.0776 12.9004 13.9213 12.7441C13.765 12.5878 13.553 12.5 13.332 12.5Z" fill="#242A2D"/>
</g>
<defs>
<clipPath id="clip0_0_440">
<rect width="20" height="20" fill="white"/>
</clipPath>
</defs>
</svg>
