<svg width="20" height="20" viewBox="0 0 20 20" fill="none" xmlns="http://www.w3.org/2000/svg">
<g clip-path="url(#clip0_0_376)">
<path d="M19.1667 18.3333H4.16667C3.50363 18.3333 2.86774 18.0699 2.3989 17.6011C1.93006 17.1323 1.66667 16.4964 1.66667 15.8333V0.833333C1.66667 0.61232 1.57887 0.400358 1.42259 0.244078C1.26631 0.0877974 1.05435 0 0.833333 0C0.61232 0 0.400358 0.0877974 0.244078 0.244078C0.0877974 0.400358 0 0.61232 0 0.833333L0 15.8333C0.00132321 16.938 0.440735 17.997 1.22185 18.7782C2.00296 19.5593 3.062 19.9987 4.16667 20H19.1667C19.3877 20 19.5996 19.9122 19.7559 19.7559C19.9122 19.5996 20 19.3877 20 19.1667C20 18.9457 19.9122 18.7337 19.7559 18.5774C19.5996 18.4211 19.3877 18.3333 19.1667 18.3333Z" fill="#242A2D"/>
<path d="M4.99935 16.666C5.22036 16.666 5.43232 16.5782 5.5886 16.4219C5.74488 16.2657 5.83268 16.0537 5.83268 15.8327V9.99935C5.83268 9.77834 5.74488 9.56637 5.5886 9.41009C5.43232 9.25381 5.22036 9.16602 4.99935 9.16602C4.77833 9.16602 4.56637 9.25381 4.41009 9.41009C4.25381 9.56637 4.16602 9.77834 4.16602 9.99935V15.8327C4.16602 16.0537 4.25381 16.2657 4.41009 16.4219C4.56637 16.5782 4.77833 16.666 4.99935 16.666Z" fill="#242A2D"/>
<path d="M8.33398 8.33333V15.8333C8.33398 16.0543 8.42178 16.2663 8.57806 16.4226C8.73434 16.5789 8.94631 16.6667 9.16732 16.6667C9.38834 16.6667 9.6003 16.5789 9.75658 16.4226C9.91286 16.2663 10.0007 16.0543 10.0007 15.8333V8.33333C10.0007 8.11232 9.91286 7.90036 9.75658 7.74408C9.6003 7.5878 9.38834 7.5 9.16732 7.5C8.94631 7.5 8.73434 7.5878 8.57806 7.74408C8.42178 7.90036 8.33398 8.11232 8.33398 8.33333Z" fill="#242A2D"/>
<path d="M12.5 10.8333V15.8333C12.5 16.0543 12.5878 16.2663 12.7441 16.4226C12.9004 16.5789 13.1123 16.6667 13.3333 16.6667C13.5544 16.6667 13.7663 16.5789 13.9226 16.4226C14.0789 16.2663 14.1667 16.0543 14.1667 15.8333V10.8333C14.1667 10.6123 14.0789 10.4004 13.9226 10.2441C13.7663 10.0878 13.5544 10 13.3333 10C13.1123 10 12.9004 10.0878 12.7441 10.2441C12.5878 10.4004 12.5 10.6123 12.5 10.8333Z" fill="#242A2D"/>
<path d="M16.666 7.49935V15.8327C16.666 16.0537 16.7538 16.2657 16.9101 16.4219C17.0664 16.5782 17.2783 16.666 17.4994 16.666C17.7204 16.666 17.9323 16.5782 18.0886 16.4219C18.2449 16.2657 18.3327 16.0537 18.3327 15.8327V7.49935C18.3327 7.27834 18.2449 7.06637 18.0886 6.91009C17.9323 6.75381 17.7204 6.66602 17.4994 6.66602C17.2783 6.66602 17.0664 6.75381 16.9101 6.91009C16.7538 7.06637 16.666 7.27834 16.666 7.49935Z" fill="#242A2D"/>
<path d="M4.99917 7.49953C5.22017 7.49948 5.43209 7.41165 5.58834 7.25536L8.57667 4.26703C8.73551 4.11571 8.94647 4.03131 9.16584 4.03131C9.38521 4.03131 9.59617 4.11571 9.755 4.26703L11.565 6.07703C12.0338 6.5457 12.6696 6.80899 13.3325 6.80899C13.9954 6.80899 14.6312 6.5457 15.1 6.07703L19.755 1.42203C19.9068 1.26486 19.9908 1.05436 19.9889 0.835858C19.987 0.617361 19.8994 0.40835 19.7449 0.253843C19.5903 0.0993366 19.3813 0.0116958 19.1628 0.00979713C18.9443 0.00789844 18.7338 0.0918938 18.5767 0.243692L13.9217 4.89786C13.7654 5.05408 13.5535 5.14185 13.3325 5.14185C13.1115 5.14185 12.8996 5.05408 12.7433 4.89786L10.9333 3.08869C10.4645 2.62001 9.82875 2.35673 9.16584 2.35673C8.50293 2.35673 7.86716 2.62001 7.39834 3.08869L4.41001 6.07703C4.2935 6.19357 4.21416 6.34204 4.18202 6.50367C4.14988 6.66529 4.16638 6.83282 4.22944 6.98507C4.2925 7.13732 4.39928 7.26746 4.53629 7.35903C4.6733 7.4506 4.83438 7.49949 4.99917 7.49953Z" fill="#242A2D"/>
</g>
<defs>
<clipPath id="clip0_0_376">
<rect width="20" height="20" fill="white"/>
</clipPath>
</defs>
</svg>
