<svg width="24" height="24" viewBox="0 0 24 24" fill="none" xmlns="http://www.w3.org/2000/svg">
<g clip-path="url(#clip0_1_5271)">
<path d="M16 16C16 16.2652 15.8946 16.5196 15.7071 16.7071C15.5196 16.8947 15.2652 17 15 17H13V19C13 19.2652 12.8946 19.5196 12.7071 19.7071C12.5196 19.8947 12.2652 20 12 20C11.7348 20 11.4804 19.8947 11.2929 19.7071C11.1054 19.5196 11 19.2652 11 19V17H9C8.73478 17 8.48043 16.8947 8.29289 16.7071C8.10536 16.5196 8 16.2652 8 16C8 15.7348 8.10536 15.4805 8.29289 15.2929C8.48043 15.1054 8.73478 15 9 15H11V13C11 12.7348 11.1054 12.4805 11.2929 12.2929C11.4804 12.1054 11.7348 12 12 12C12.2652 12 12.5196 12.1054 12.7071 12.2929C12.8946 12.4805 13 12.7348 13 13V15H15C15.2652 15 15.5196 15.1054 15.7071 15.2929C15.8946 15.4805 16 15.7348 16 16ZM22 10.485V19C21.9984 20.3256 21.4711 21.5965 20.5338 22.5338C19.5964 23.4711 18.3256 23.9984 17 24H7C5.67441 23.9984 4.40356 23.4711 3.46622 22.5338C2.52888 21.5965 2.00159 20.3256 2 19V5.00002C2.00159 3.67443 2.52888 2.40358 3.46622 1.46624C4.40356 0.528905 5.67441 0.00161091 7 2.30487e-05H11.515C12.4346 -0.00234388 13.3456 0.177611 14.1952 0.529482C15.0449 0.881354 15.8163 1.39816 16.465 2.05002L19.949 5.53602C20.6012 6.18426 21.1184 6.95548 21.4704 7.805C21.8225 8.65451 22.0025 9.56545 22 10.485ZM15.051 3.46402C14.7363 3.15918 14.3829 2.89695 14 2.68402V7.00002C14 7.26524 14.1054 7.51959 14.2929 7.70713C14.4804 7.89467 14.7348 8.00002 15 8.00002H19.316C19.103 7.61721 18.8404 7.26417 18.535 6.95002L15.051 3.46402ZM20 10.485C20 10.32 19.968 10.162 19.953 10H15C14.2044 10 13.4413 9.68395 12.8787 9.12134C12.3161 8.55873 12 7.79567 12 7.00002V2.04702C11.838 2.03202 11.679 2.00002 11.515 2.00002H7C6.20435 2.00002 5.44129 2.31609 4.87868 2.8787C4.31607 3.44131 4 4.20437 4 5.00002V19C4 19.7957 4.31607 20.5587 4.87868 21.1213C5.44129 21.684 6.20435 22 7 22H17C17.7956 22 18.5587 21.684 19.1213 21.1213C19.6839 20.5587 20 19.7957 20 19V10.485Z" fill="#22BCFF"/>
</g>
<defs>
<clipPath id="clip0_1_5271">
<rect width="24" height="24" fill="white"/>
</clipPath>
</defs>
</svg>
