<svg width="25" height="24" viewBox="0 0 25 24" fill="none" xmlns="http://www.w3.org/2000/svg">
<path fill-rule="evenodd" clip-rule="evenodd" d="M12.0137 0.312419C12.4292 -0.10414 13.1027 -0.10414 13.5182 0.312419L24.6884 11.5124C24.8879 11.7125 25 11.9838 25 12.2667V22.9333C25 23.5224 24.5237 24 23.9362 24H7.44681C6.85927 24 6.38298 23.5224 6.38298 22.9333V14.9333C6.38298 14.6504 6.49506 14.3791 6.69457 14.1791L15.5168 5.33333L12.766 2.57516L2.12766 13.2418V22.9333C2.12766 23.5224 1.65137 24 1.06383 24C0.476293 24 0 23.5224 0 22.9333V12.8011C0 12.5182 0.112082 12.2458 0.311589 12.0458L12.0137 0.312419ZM17.0213 6.84183L8.51064 15.3752V21.8667H22.8723V12.7085L17.0213 6.84183Z" fill="#22BCFF"/>
</svg>
