<svg width="20" height="20" viewBox="0 0 20 20" fill="none" xmlns="http://www.w3.org/2000/svg">
<g clip-path="url(#clip0_1_6247)">
<path d="M9.96402 20.0068L9.38312 19.5088C8.5823 18.8383 1.58984 12.7993 1.58984 8.38199C1.58984 3.75707 5.3391 0.0078125 9.96402 0.0078125C14.5889 0.0078125 18.3382 3.75707 18.3382 8.38199C18.3382 12.7994 11.3457 18.8383 10.5482 19.5121L9.96402 20.0068ZM9.96402 1.81855C6.34086 1.82266 3.40473 4.75879 3.40062 8.38195C3.40062 11.157 7.70266 15.5902 9.96402 17.6192C12.2254 15.5893 16.5274 11.1537 16.5274 8.38195C16.5233 4.75879 13.5872 1.8227 9.96402 1.81855Z" fill="#738B96"/>
<path d="M9.96398 11.7014C8.1307 11.7014 6.64453 10.2152 6.64453 8.38195C6.64453 6.54867 8.1307 5.0625 9.96398 5.0625C11.7973 5.0625 13.2834 6.54867 13.2834 8.38195C13.2834 10.2152 11.7973 11.7014 9.96398 11.7014ZM9.96398 6.72219C9.04734 6.72219 8.30426 7.46527 8.30426 8.38191C8.30426 9.29855 9.04734 10.0416 9.96398 10.0416C10.8806 10.0416 11.6237 9.29855 11.6237 8.38191C11.6237 7.46527 10.8807 6.72219 9.96398 6.72219Z" fill="#738B96"/>
</g>
<defs>
<clipPath id="clip0_1_6247">
<rect width="20" height="20" fill="white"/>
</clipPath>
</defs>
</svg>
