<svg width="16" height="16" viewBox="0 0 16 16" fill="none" xmlns="http://www.w3.org/2000/svg">
<g clip-path="url(#clip0_0_423)">
<path d="M7.9987 4C7.47128 4 6.95571 4.1564 6.51718 4.44941C6.07865 4.74243 5.73685 5.15891 5.53502 5.64618C5.33319 6.13345 5.28038 6.66962 5.38327 7.18691C5.48617 7.70419 5.74014 8.17935 6.11308 8.55229C6.48602 8.92523 6.96118 9.1792 7.47846 9.28209C7.99574 9.38499 8.53192 9.33218 9.01919 9.13035C9.50646 8.92851 9.92293 8.58672 10.216 8.14819C10.509 7.70966 10.6654 7.19408 10.6654 6.66667C10.6654 5.95942 10.3844 5.28115 9.88432 4.78105C9.38422 4.28095 8.70594 4 7.9987 4ZM7.9987 8C7.73499 8 7.4772 7.9218 7.25794 7.77529C7.03867 7.62878 6.86778 7.42055 6.76686 7.17691C6.66594 6.93328 6.63954 6.66519 6.69099 6.40655C6.74243 6.14791 6.86942 5.91033 7.05589 5.72386C7.24236 5.53739 7.47994 5.4104 7.73858 5.35895C7.99722 5.30751 8.26531 5.33391 8.50894 5.43483C8.75258 5.53574 8.96082 5.70664 9.10733 5.92591C9.25383 6.14517 9.33203 6.40296 9.33203 6.66667C9.33203 7.02029 9.19156 7.35943 8.94151 7.60948C8.69146 7.85952 8.35232 8 7.9987 8Z" fill="#1A1D1E"/>
<path d="M9.29812 15.0265C8.51359 15.6057 7.44016 15.5948 6.66751 14.9998C6.02685 14.4634 1.27344 10.2391 1.27344 6.7052C1.27344 3.00526 4.27284 0.00585938 7.97278 0.00585938C11.6727 0.00585938 14.6721 3.00526 14.6721 6.7052C14.6721 10.2391 9.97218 14.4608 9.33418 14.9998L9.29812 15.0265ZM7.97278 1.45445C5.07425 1.45773 2.72534 3.80664 2.72206 6.70517C2.72206 8.46222 4.87781 11.0501 6.67386 12.8578C7.39356 13.5822 8.55189 13.5821 9.27145 12.8576C11.0676 11.0491 13.2235 8.46018 13.2235 6.70517C13.2202 3.80664 10.8713 1.45777 7.97278 1.45445Z" fill="#1A1D1E"/>
<path d="M7.97197 9.35995C6.50534 9.35995 5.31641 8.17102 5.31641 6.70439C5.31641 5.23777 6.50534 4.04883 7.97197 4.04883C9.43859 4.04883 10.6275 5.23777 10.6275 6.70439C10.6275 8.17102 9.43862 9.35995 7.97197 9.35995ZM7.97197 5.37658C7.23866 5.37658 6.64419 5.97105 6.64419 6.70436C6.64419 7.43767 7.23866 8.03214 7.97197 8.03214C8.70528 8.03214 9.29975 7.43767 9.29975 6.70436C9.29975 5.97105 8.70531 5.37658 7.97197 5.37658Z" fill="#1A1D1E"/>
</g>
<defs>
<clipPath id="clip0_0_423">
<rect width="16" height="16" fill="white"/>
</clipPath>
</defs>
</svg>
