<svg width="36" height="36" viewBox="0 0 36 36" fill="none" xmlns="http://www.w3.org/2000/svg">
<g clip-path="url(#clip0_0_55)">
<path d="M34.9453 9.32063H32.1292V8.32086C32.1292 7.89976 31.8787 7.51902 31.492 7.3523L26.3251 5.12558C26.1933 5.06877 26.0513 5.03945 25.9077 5.03945H22.3498C22.2375 3.98138 21.3398 3.1543 20.2525 3.1543H2.10938C0.946266 3.1543 0 4.10056 0 5.26367V15.4868C0 16.6499 0.946266 17.5962 2.10938 17.5962H4.28091L2.80209 26.1363H2.06255C1.48008 26.1363 1.00786 26.6085 1.00786 27.191V31.7916C1.00786 32.3741 1.48008 32.8463 2.06255 32.8463H12.7972C13.3796 32.8463 13.8518 32.3741 13.8518 31.7916V27.191C13.8518 26.6085 13.3796 26.1363 12.7972 26.1363H11.077L11.5717 23.2795H13.3831C15.1062 23.2795 16.6231 22.1177 17.0721 20.454L17.8432 17.5962H20.2526C21.3399 17.5962 22.2376 16.7691 22.35 15.7111H25.9078C26.0575 15.7111 26.2054 15.6792 26.3418 15.6177L31.5086 13.2852C31.8865 13.1146 32.1294 12.7385 32.1294 12.3239V11.4299H34.9453C35.5278 11.4299 36 10.9576 36 10.3752C36 9.79271 35.5278 9.32063 34.9453 9.32063ZM11.7425 30.7369H3.11723V28.2457H11.7425V30.7369ZM4.94283 26.1363L6.42171 17.5963H10.415L8.93616 26.1363H4.94283ZM15.0354 19.9046C14.8344 20.6497 14.155 21.1701 13.3831 21.1701H11.9369L12.5557 17.5963H15.6582L15.0354 19.9046ZM20.2525 15.4869H2.10938L2.10804 5.26374C2.10804 5.26374 2.10846 5.26367 2.10938 5.26367H20.2525V15.4869ZM22.3618 7.14882H24.853V13.6018H22.3618V7.14882ZM30.0199 11.6429L26.9624 13.0231V7.69712L30.0199 9.01477V11.6429Z" fill="#1A1D1E"/>
<path fill-rule="evenodd" clip-rule="evenodd" d="M31.8994 9.55042V8.32086C31.8994 7.99153 31.7035 7.69373 31.401 7.56333C31.401 7.56333 31.401 7.56333 31.401 7.56333L26.2342 5.3366C26.1311 5.29216 26.02 5.26923 25.9077 5.26923H22.1431L22.1213 5.06371C22.0212 4.12111 21.2209 3.38408 20.2525 3.38408H2.10938C1.07317 3.38408 0.229787 4.22747 0.229787 5.26367V15.4868C0.229787 16.523 1.07317 17.3664 2.10938 17.3664H4.5539L2.99551 26.3661H2.06255C1.60699 26.3661 1.23765 26.7354 1.23765 27.191V31.7916C1.23765 32.2472 1.60699 32.6165 2.06255 32.6165H12.7972C13.2527 32.6165 13.6221 32.2472 13.6221 31.7916V27.191C13.6221 26.7354 13.2527 26.3661 12.7972 26.3661H10.804L11.3783 23.0497H13.3831C15.0024 23.0497 16.4283 21.9575 16.8502 20.3941L17.6672 17.3664H20.2526C21.221 17.3664 22.0214 16.6294 22.1215 15.6868L22.1433 15.4813H25.9078C26.0248 15.4813 26.1405 15.4564 26.2473 15.4082M26.2473 15.4082L31.4141 13.0758C31.4141 13.0758 31.4141 13.0758 31.4141 13.0758C31.7096 12.9423 31.8996 12.6482 31.8996 12.3239V11.2001H34.9453C35.4009 11.2001 35.7702 10.8307 35.7702 10.3752C35.7702 9.91966 35.4009 9.55042 34.9453 9.55042H31.8994M31.5086 13.2852L26.3418 15.6177C26.2054 15.6792 26.0575 15.7111 25.9078 15.7111H22.35C22.2376 16.7691 21.3399 17.5962 20.2526 17.5962H17.8432L17.0721 20.454C16.6231 22.1176 15.1062 23.2795 13.3831 23.2795H11.5717L11.077 26.1363H12.7972C13.3796 26.1363 13.8518 26.6085 13.8518 27.191V31.7916C13.8518 32.3741 13.3796 32.8463 12.7972 32.8463H2.06255C1.48008 32.8463 1.00786 32.3741 1.00786 31.7916V27.191C1.00786 26.6085 1.48008 26.1363 2.06255 26.1363H2.80209L4.28091 17.5962H2.10938C0.946266 17.5962 0 16.6499 0 15.4868V5.26367C0 4.10056 0.946266 3.1543 2.10938 3.1543H20.2525C21.3398 3.1543 22.2375 3.98138 22.3498 5.03945H25.9077C26.0513 5.03945 26.1933 5.06877 26.3251 5.12558L31.492 7.3523C31.8787 7.51902 32.1292 7.89976 32.1292 8.32086V9.32063H34.9453C35.5278 9.32063 36 9.79271 36 10.3752C36 10.9576 35.5278 11.4299 34.9453 11.4299H32.1294V12.3239C32.1294 12.7385 31.8865 13.1146 31.5086 13.2852ZM11.9723 30.9667H2.88745V28.0159H11.9723V30.9667ZM4.66983 26.3661L6.2283 17.3665H10.688L9.12957 26.3661H4.66983ZM11.6639 21.3999L12.3623 17.3665H15.9583L15.2573 19.9644C15.2573 19.9644 15.2573 19.9644 15.2573 19.9644C15.0292 20.8099 14.2588 21.3999 13.3831 21.3999H11.6639ZM15.0354 19.9046L15.6582 17.5963H12.5557L11.9369 21.1701H13.3831C14.155 21.1701 14.8344 20.6497 15.0354 19.9046ZM20.4822 15.7167H1.87962L1.87823 5.06907L2.07028 5.03708L2.10804 5.26374L2.10938 15.4869H20.2525V5.26367H2.10938L2.10804 5.26374C2.07028 5.03708 2.07024 5.03709 2.07028 5.03708L2.07152 5.03688L2.07276 5.03668L2.07525 5.03631L2.0802 5.03565L2.09005 5.03465C2.09658 5.03413 2.10303 5.03388 2.10938 5.03388H20.4822V15.7167ZM22.132 6.91903H25.0828V13.8315H22.132V6.91903ZM30.2496 11.7913L26.7326 13.379V7.34787L30.2496 8.86358V11.7913ZM4.94283 26.1363H8.93616L10.415 17.5963H6.42171L4.94283 26.1363ZM30.0199 11.6429V9.01477L26.9624 7.69712V13.0231L30.0199 11.6429ZM11.7425 30.7369V28.2457H3.11723V30.7369H11.7425ZM22.3618 7.14882V13.6018H24.853V7.14882H22.3618Z" fill="#FCFEFF"/>
<path d="M15.7811 9.32031H6.58008C5.99761 9.32031 5.52539 9.79253 5.52539 10.375C5.52539 10.9575 5.99761 11.4297 6.58008 11.4297H15.7811C16.3636 11.4297 16.8358 10.9575 16.8358 10.375C16.8358 9.79253 16.3636 9.32031 15.7811 9.32031Z" fill="#1A1D1E"/>
<path fill-rule="evenodd" clip-rule="evenodd" d="M15.7811 9.5501H6.58008C6.12452 9.5501 5.75518 9.91944 5.75518 10.375C5.75518 10.8306 6.12452 11.1999 6.58008 11.1999H15.7811C16.2367 11.1999 16.606 10.8306 16.606 10.375C16.606 9.91944 16.2367 9.5501 15.7811 9.5501ZM6.58008 9.32031H15.7811C16.3636 9.32031 16.8358 9.79253 16.8358 10.375C16.8358 10.9575 16.3636 11.4297 15.7811 11.4297H6.58008C5.99761 11.4297 5.52539 10.9575 5.52539 10.375C5.52539 9.79253 5.99761 9.32031 6.58008 9.32031Z" fill="#FCFEFF"/>
</g>
<defs>
<clipPath id="clip0_0_55">
<rect width="36" height="36" fill="white"/>
</clipPath>
</defs>
</svg>
