<svg width="22" height="22" viewBox="0 0 22 22" fill="none" xmlns="http://www.w3.org/2000/svg">
<g clip-path="url(#clip0_0_285)">
<path d="M21.0833 10.0833H11.9167V0.916667C11.9167 0.673552 11.8201 0.440394 11.6482 0.268485C11.4763 0.0965771 11.2431 0 11 0V0C10.7569 0 10.5237 0.0965771 10.3518 0.268485C10.1799 0.440394 10.0833 0.673552 10.0833 0.916667V10.0833H0.916667C0.673552 10.0833 0.440394 10.1799 0.268485 10.3518C0.0965771 10.5237 0 10.7569 0 11H0C0 11.2431 0.0965771 11.4763 0.268485 11.6482C0.440394 11.8201 0.673552 11.9167 0.916667 11.9167H10.0833V21.0833C10.0833 21.3264 10.1799 21.5596 10.3518 21.7315C10.5237 21.9034 10.7569 22 11 22C11.2431 22 11.4763 21.9034 11.6482 21.7315C11.8201 21.5596 11.9167 21.3264 11.9167 21.0833V11.9167H21.0833C21.3264 11.9167 21.5596 11.8201 21.7315 11.6482C21.9034 11.4763 22 11.2431 22 11C22 10.7569 21.9034 10.5237 21.7315 10.3518C21.5596 10.1799 21.3264 10.0833 21.0833 10.0833Z" fill="#FCFEFF"/>
</g>
<defs>
<clipPath id="clip0_0_285">
<rect width="22" height="22" fill="white"/>
</clipPath>
</defs>
</svg>
