<svg width="24" height="24" viewBox="0 0 24 24" fill="none" xmlns="http://www.w3.org/2000/svg">
<g clip-path="url(#clip0_1_5282)">
<path d="M23.7078 22.2938L17.7388 16.3248C19.3654 14.3354 20.1651 11.7969 19.9726 9.23432C19.7801 6.67179 18.61 4.28129 16.7043 2.55728C14.7987 0.833269 12.3034 -0.0923492 9.7344 -0.0281174C7.16545 0.0361144 4.71946 1.08528 2.90237 2.90237C1.08528 4.71946 0.0361144 7.16545 -0.0281174 9.7344C-0.0923492 12.3034 0.833269 14.7987 2.55728 16.7043C4.28129 18.61 6.67179 19.7801 9.23432 19.9726C11.7969 20.1651 14.3354 19.3654 16.3248 17.7388L22.2938 23.7078C22.4824 23.8899 22.735 23.9907 22.9972 23.9884C23.2594 23.9862 23.5102 23.881 23.6956 23.6956C23.881 23.5102 23.9862 23.2594 23.9884 22.9972C23.9907 22.735 23.8899 22.4824 23.7078 22.2938ZM10.0008 18.0008C8.41851 18.0008 6.87179 17.5316 5.5562 16.6525C4.2406 15.7735 3.21522 14.524 2.60972 13.0622C2.00422 11.6004 1.84579 9.99189 2.15448 8.44004C2.46316 6.88819 3.22508 5.46272 4.3439 4.3439C5.46272 3.22508 6.88819 2.46316 8.44004 2.15448C9.99189 1.84579 11.6004 2.00422 13.0622 2.60972C14.524 3.21522 15.7735 4.2406 16.6525 5.5562C17.5316 6.87179 18.0008 8.41851 18.0008 10.0008C17.9984 12.1218 17.1548 14.1552 15.655 15.655C14.1552 17.1548 12.1218 17.9984 10.0008 18.0008Z" fill="#FCFEFF"/>
</g>
<defs>
<clipPath id="clip0_1_5282">
<rect width="24" height="24" fill="white"/>
</clipPath>
</defs>
</svg>
