<svg width="20" height="20" viewBox="0 0 20 20" fill="none" xmlns="http://www.w3.org/2000/svg">
<g clip-path="url(#clip0_0_410)">
<path d="M9.56333 12.5C9.34232 12.5 9.13036 12.5878 8.97408 12.7441C8.8178 12.9004 8.73 13.1123 8.73 13.3333V15.8333C8.73 16.4964 8.46661 17.1323 7.99777 17.6011C7.52893 18.0699 6.89304 18.3333 6.23 18.3333H4.16667C3.50363 18.3333 2.86774 18.0699 2.3989 17.6011C1.93006 17.1323 1.66667 16.4964 1.66667 15.8333V4.16667C1.66667 3.50363 1.93006 2.86774 2.3989 2.3989C2.86774 1.93006 3.50363 1.66667 4.16667 1.66667H6.23C6.89304 1.66667 7.52893 1.93006 7.99777 2.3989C8.46661 2.86774 8.73 3.50363 8.73 4.16667V6.66667C8.73 6.88768 8.8178 7.09964 8.97408 7.25592C9.13036 7.4122 9.34232 7.5 9.56333 7.5C9.78435 7.5 9.99631 7.4122 10.1526 7.25592C10.3089 7.09964 10.3967 6.88768 10.3967 6.66667V4.16667C10.3953 3.062 9.95593 2.00296 9.17482 1.22185C8.3937 0.440735 7.33466 0.00132321 6.23 0H4.16667C3.062 0.00132321 2.00296 0.440735 1.22185 1.22185C0.440735 2.00296 0.00132321 3.062 0 4.16667L0 15.8333C0.00132321 16.938 0.440735 17.997 1.22185 18.7782C2.00296 19.5593 3.062 19.9987 4.16667 20H6.23C7.33466 19.9987 8.3937 19.5593 9.17482 18.7782C9.95593 17.997 10.3953 16.938 10.3967 15.8333V13.3333C10.3967 13.1123 10.3089 12.9004 10.1526 12.7441C9.99631 12.5878 9.78435 12.5 9.56333 12.5Z" fill="#242A2D"/>
<path d="M19.0552 8.23232L15.2335 4.41066C15.1566 4.33107 15.0647 4.26758 14.963 4.22391C14.8614 4.18023 14.752 4.15724 14.6414 4.15628C14.5307 4.15532 14.421 4.1764 14.3186 4.21831C14.2161 4.26021 14.1231 4.32208 14.0449 4.40033C13.9666 4.47857 13.9047 4.57161 13.8628 4.67403C13.8209 4.77644 13.7998 4.88618 13.8008 4.99682C13.8018 5.10747 13.8248 5.21682 13.8684 5.31849C13.9121 5.42016 13.9756 5.51212 14.0552 5.58899L17.6069 9.14149L4.99935 9.16649C4.77834 9.16649 4.56637 9.25429 4.41009 9.41057C4.25381 9.56685 4.16602 9.77881 4.16602 9.99982C4.16602 10.2208 4.25381 10.4328 4.41009 10.5891C4.56637 10.7454 4.77834 10.8332 4.99935 10.8332L17.656 10.8073L14.0535 14.4107C13.9739 14.4875 13.9104 14.5795 13.8668 14.6812C13.8231 14.7828 13.8001 14.8922 13.7991 15.0028C13.7982 15.1135 13.8193 15.2232 13.8612 15.3256C13.9031 15.428 13.9649 15.5211 14.0432 15.5993C14.1214 15.6776 14.2145 15.7394 14.3169 15.7813C14.4193 15.8232 14.529 15.8443 14.6397 15.8434C14.7503 15.8424 14.8597 15.8194 14.9614 15.7757C15.063 15.7321 15.155 15.6686 15.2318 15.589L19.0535 11.7673C19.5224 11.2987 19.786 10.6631 19.7863 10.0002C19.7866 9.33726 19.5236 8.70136 19.0552 8.23232Z" fill="#242A2D"/>
</g>
<defs>
<clipPath id="clip0_0_410">
<rect width="20" height="20" fill="white"/>
</clipPath>
</defs>
</svg>
