<svg width="20" height="20" viewBox="0 0 20 20" fill="none" xmlns="http://www.w3.org/2000/svg">
<g clip-path="url(#clip0_0_138)">
<path d="M19.1138 0.886634C18.5452 0.318885 17.7745 0 16.971 0C16.1675 0 15.3968 0.318885 14.8282 0.886634L1.22531 14.4898C0.835766 14.8772 0.5269 15.3379 0.316581 15.8454C0.106261 16.3529 -0.00133652 16.8971 1.253e-05 17.4465V19.1636C1.253e-05 19.3854 0.0881309 19.5982 0.244983 19.755C0.401834 19.9119 0.614571 20 0.836392 20H2.55348C3.10278 20.0015 3.64694 19.8941 4.15444 19.6839C4.66195 19.4737 5.12272 19.165 5.51008 18.7755L19.1138 5.1715C19.6813 4.60291 20 3.8324 20 3.02907C20 2.22573 19.6813 1.45522 19.1138 0.886634ZM4.32744 17.5928C3.85573 18.0614 3.21837 18.3253 2.55348 18.3272H1.67277V17.4465C1.67193 17.1168 1.73647 16.7903 1.86266 16.4858C1.98886 16.1813 2.17419 15.9049 2.40795 15.6725L12.7314 5.34881L14.6551 7.27253L4.32744 17.5928ZM17.9303 3.98883L15.8344 6.08568L13.9107 4.16615L16.0075 2.0693C16.1338 1.94326 16.2837 1.84334 16.4486 1.77523C16.6135 1.70712 16.7903 1.67217 16.9687 1.67236C17.1471 1.67256 17.3238 1.7079 17.4886 1.77636C17.6534 1.84483 17.803 1.94508 17.9291 2.07139C18.0551 2.1977 18.155 2.3476 18.2231 2.51254C18.2912 2.67747 18.3262 2.8542 18.326 3.03263C18.3258 3.21107 18.2905 3.38773 18.222 3.55251C18.1535 3.71729 18.0533 3.86697 17.927 3.99301L17.9303 3.98883Z" fill="#22BCFF"/>
</g>
<defs>
<clipPath id="clip0_0_138">
<rect width="20" height="20" fill="white"/>
</clipPath>
</defs>
</svg>
