<svg width="20" height="20" viewBox="0 0 20 20" fill="none" xmlns="http://www.w3.org/2000/svg">
<path d="M19.1667 8.66602H0.833333C0.373096 8.66602 0 9.11373 0 9.66602C0 10.2183 0.373096 10.666 0.833333 10.666H19.1667C19.6269 10.666 20 10.2183 20 9.66602C20 9.11373 19.6269 8.66602 19.1667 8.66602Z" fill="#242A2D"/>
<path d="M19.1667 1.66602H0.833333C0.373096 1.66602 0 2.11373 0 2.66602C0 3.2183 0.373096 3.66602 0.833333 3.66602H19.1667C19.6269 3.66602 20 3.2183 20 2.66602C20 2.11373 19.6269 1.66602 19.1667 1.66602Z" fill="#242A2D"/>
<path d="M19.1667 15.666H0.833333C0.373096 15.666 0 16.1137 0 16.666C0 17.2183 0.373096 17.666 0.833333 17.666H19.1667C19.6269 17.666 20 17.2183 20 16.666C20 16.1137 19.6269 15.666 19.1667 15.666Z" fill="#242A2D"/>
</svg>
