<svg width="16" height="16" viewBox="0 0 16 16" fill="none" xmlns="http://www.w3.org/2000/svg">
<rect y="2" width="16" height="12" rx="2" fill="#FF3E4C"/>
<path d="M2.32342 9.63867V10.6699H1.25391V9.63867H2.32342Z" fill="#FCFEFF"/>
<path d="M3.89626 9.17325V10.6698H2.8623V6.4043H4.53769C5.04542 6.4043 5.43368 6.53053 5.69964 6.78161C5.83422 6.91351 5.93928 7.07232 6.00791 7.24762C6.07655 7.42291 6.1072 7.61072 6.09786 7.79868C6.10304 8.04667 6.04166 8.29155 5.92008 8.50794C5.79592 8.71949 5.61187 8.88978 5.39102 8.99735C5.12463 9.12293 4.83219 9.18369 4.53769 9.17467L3.89626 9.17325ZM5.04542 7.79868C5.04542 7.42041 4.83778 7.23127 4.42249 7.23127H3.89626V8.34198H4.42249C4.83778 8.34576 5.04542 8.16465 5.04542 7.79868Z" fill="#FCFEFF"/>
<path d="M10.1843 9.64213C10.0062 9.96466 9.73725 10.228 9.41062 10.3996C9.04311 10.5873 8.63441 10.6804 8.22165 10.6706H6.60742V6.40509H8.22165C8.63472 6.39473 9.04401 6.4858 9.41347 6.67034C9.73919 6.83824 10.0075 7.09895 10.1843 7.41932C10.3694 7.75943 10.4625 8.14173 10.4545 8.52861C10.4622 8.91682 10.3692 9.3004 10.1843 9.64213ZM9.07214 9.42793C9.18775 9.30957 9.27732 9.16846 9.33511 9.01359C9.39291 8.85873 9.41766 8.69356 9.40778 8.52861C9.41772 8.36387 9.393 8.19886 9.33519 8.04422C9.27739 7.88957 9.18778 7.74872 9.07214 7.63068C8.81345 7.40429 8.47555 7.28906 8.13205 7.31009H7.64138V9.7471H8.13205C8.47527 9.7679 8.81292 9.65326 9.07214 9.42793Z" fill="#FCFEFF"/>
<path d="M13.829 6.4043V7.22562H12.0754V8.16041H13.4294V8.94485H12.0754V10.6698H11.04V6.4043H13.829Z" fill="#FCFEFF"/>
</svg>
