<svg width="24" height="24" viewBox="0 0 24 24" fill="none" xmlns="http://www.w3.org/2000/svg">
<path d="M20.8483 13.3818L19.276 7.6858C18.8152 6.0171 17.8137 4.55139 16.4306 3.52166C15.0475 2.49194 13.3623 1.95727 11.6428 2.00267C9.92334 2.04806 8.26827 2.67091 6.94068 3.7722C5.6131 4.87349 4.6892 6.39003 4.31583 8.08075L3.09859 13.5926C2.96413 14.2017 2.96724 14.8333 3.10769 15.441C3.24813 16.0487 3.52232 16.6168 3.91001 17.1035C4.29771 17.5902 4.78901 17.983 5.34764 18.2529C5.90627 18.5228 6.51797 18.6629 7.13757 18.6629H8.0594C8.24932 19.6047 8.75675 20.4514 9.49571 21.0596C10.2347 21.6678 11.1597 22 12.1141 22C13.0685 22 13.9935 21.6678 14.7325 21.0596C15.4715 20.4514 15.9789 19.6047 16.1688 18.6629H16.8623C17.5001 18.6629 18.1293 18.5145 18.7007 18.2291C19.2722 17.9438 19.7703 17.5293 20.1564 17.0179C20.5424 16.5066 20.8057 15.9124 20.9259 15.2816C21.0461 14.6509 21.0198 14.0007 20.8491 13.3818H20.8483ZM12.1141 20.3293C11.6025 20.3272 11.104 20.166 10.6869 19.8677C10.2698 19.5694 9.95442 19.1486 9.78389 18.6629H14.4443C14.2738 19.1486 13.9584 19.5694 13.5413 19.8677C13.1242 20.166 12.6257 20.3272 12.1141 20.3293ZM18.8383 16.009C18.6077 16.317 18.309 16.5667 17.9658 16.7381C17.6226 16.9095 17.2445 16.9979 16.8614 16.9964H7.13757C6.76585 16.9963 6.39889 16.9122 6.06377 16.7502C5.72866 16.5883 5.43394 16.3526 5.20138 16.0606C4.96882 15.7686 4.80435 15.4277 4.72011 15.0632C4.63587 14.6986 4.63402 14.3196 4.71468 13.9542L5.93109 8.44154C6.22432 7.11353 6.94999 5.92233 7.99275 5.0573C9.03551 4.19228 10.3355 3.70306 11.6861 3.66743C13.0367 3.63181 14.3604 4.05181 15.4467 4.86068C16.533 5.66954 17.3196 6.82085 17.6815 8.13158L19.2537 13.8276C19.3576 14.1987 19.3741 14.5891 19.302 14.9677C19.2299 15.3464 19.0711 15.7029 18.8383 16.009Z" fill="#242A2D"/>
</svg>
