<svg width="20" height="20" viewBox="0 0 20 20" fill="none" xmlns="http://www.w3.org/2000/svg">
<path d="M17.6392 9.1665H2.36144C1.97791 9.1665 1.66699 9.5396 1.66699 9.99984C1.66699 10.4601 1.97791 10.8332 2.36144 10.8332H17.6392C18.0227 10.8332 18.3337 10.4601 18.3337 9.99984C18.3337 9.5396 18.0227 9.1665 17.6392 9.1665Z" fill="#242A2D"/>
<path d="M17.6392 3.3335H2.36144C1.97791 3.3335 1.66699 3.70659 1.66699 4.16683C1.66699 4.62707 1.97791 5.00016 2.36144 5.00016H17.6392C18.0227 5.00016 18.3337 4.62707 18.3337 4.16683C18.3337 3.70659 18.0227 3.3335 17.6392 3.3335Z" fill="#242A2D"/>
<path d="M17.6392 15H2.36144C1.97791 15 1.66699 15.3731 1.66699 15.8333C1.66699 16.2936 1.97791 16.6667 2.36144 16.6667H17.6392C18.0227 16.6667 18.3337 16.2936 18.3337 15.8333C18.3337 15.3731 18.0227 15 17.6392 15Z" fill="#242A2D"/>
</svg>
