<svg width="36" height="36" viewBox="0 0 36 36" fill="none" xmlns="http://www.w3.org/2000/svg">
<path fill-rule="evenodd" clip-rule="evenodd" d="M25.9802 2.39062C25.5813 2.39062 25.2292 2.71284 25.2029 3.17735C24.9552 7.76098 23.5201 12.4579 22.1632 15.9855C21.4828 17.7546 20.8176 19.2406 20.322 20.2855C20.0742 20.8082 19.8685 21.2209 19.7242 21.504C19.6521 21.6456 19.5952 21.7548 19.5562 21.8292C19.5366 21.8664 19.5215 21.8949 19.5111 21.9144L19.4992 21.9368L19.4947 21.9451C19.4946 21.9453 19.4945 21.9454 18.8759 21.6112L19.4947 21.9451C19.367 22.1815 19.1155 22.3248 18.8471 22.3138L14.952 22.1541L14.7989 22.3472L22.7415 26.9022L22.885 26.5067L20.3806 22.81C20.2243 22.5793 20.219 22.278 20.3671 22.042C24.8193 14.9451 26.549 7.75593 26.7572 3.24161M18.4586 20.8904C18.4627 20.8823 18.467 20.874 18.4712 20.8656C18.61 20.5932 18.8098 20.1925 19.0515 19.6829C19.535 18.6634 20.1854 17.2104 20.8507 15.4807C22.1853 12.011 23.5626 7.47198 23.7988 3.10082L23.7988 3.09948C23.8628 1.9556 24.7706 0.984375 25.9802 0.984375C27.2638 0.984375 28.2187 2.06703 28.162 3.30589C27.9466 7.97684 26.2036 15.2226 21.8006 22.3988L24.2505 26.015C24.3769 26.2016 24.4062 26.4374 24.3293 26.6493L23.778 28.168C23.7072 28.3632 23.5538 28.517 23.3588 28.5884C23.1639 28.6598 22.9474 28.6413 22.7673 28.5381L13.3904 23.1606C13.2128 23.0587 13.0884 22.8844 13.0497 22.6833C13.0111 22.4822 13.0621 22.2742 13.1893 22.1138L14.0724 21C14.2121 20.8239 14.4276 20.7251 14.6522 20.7343L18.4586 20.8904ZM25.9802 2.39062C26.4179 2.39062 26.7792 2.75935 26.7572 3.24161L25.9802 2.39062Z" fill="#1A1D1E"/>
<path fill-rule="evenodd" clip-rule="evenodd" d="M14.0073 21.9023C14.3654 22.0525 14.534 22.4646 14.3838 22.8227L13.7354 22.5508C14.3838 22.8227 14.3837 22.8231 14.3835 22.8235L14.3831 22.8244L14.3822 22.8265L14.3801 22.8315L14.374 22.8455C14.3691 22.8564 14.3627 22.8706 14.3546 22.8879C14.3384 22.9225 14.3156 22.9695 14.2854 23.0272C14.2252 23.1425 14.1356 23.3011 14.0118 23.4899C13.7642 23.8671 13.3784 24.3666 12.8144 24.8814C11.8971 25.7184 10.5251 26.5802 8.54938 27.0313L9.99309 28.2935L12.5227 27.1472C12.8171 27.0138 13.1646 27.0983 13.3648 27.352C13.5651 27.6057 13.5666 27.9633 13.3684 28.2187L12.0033 29.9782L13.6478 31.4144L16.1881 30.2532C16.4881 30.116 16.8431 30.2059 17.0418 30.4692C17.2404 30.7326 17.2293 31.0986 17.015 31.3494L15.6872 32.9032L16.7132 33.5645C16.8386 33.5338 17.006 33.4885 17.205 33.4243C17.6793 33.2712 18.3256 33.0133 19.0067 32.5964C20.3603 31.7678 21.8503 30.3158 22.4266 27.7729C22.5124 27.3941 22.889 27.1567 23.2677 27.2425C23.6464 27.3284 23.8839 27.7049 23.798 28.0837C23.12 31.0757 21.3417 32.8159 19.7408 33.7958C18.9447 34.2831 18.1921 34.5834 17.6369 34.7626C17.3586 34.8524 17.1282 34.9123 16.9642 34.9503C16.8821 34.9693 16.8165 34.9829 16.7697 34.992C16.7463 34.9965 16.7276 35 16.7138 35.0024L16.6969 35.0053L16.6913 35.0062L16.6893 35.0066L16.6884 35.0067C16.688 35.0068 16.6877 35.0068 16.576 34.3126L16.6877 35.0068C16.5164 35.0344 16.341 34.9976 16.1951 34.9036L14.2489 33.6493C14.0783 33.5393 13.9635 33.3611 13.9341 33.1603C13.9168 33.0419 13.93 32.9226 13.9708 32.813L13.8196 32.8821C13.5683 32.997 13.2729 32.954 13.0648 32.7722L10.5785 30.601C10.298 30.356 10.2572 29.9347 10.4855 29.6404L10.5168 29.6001L10.1613 29.7612C9.91018 29.875 9.61578 29.8315 9.40825 29.6501L6.50013 27.1076C6.28933 26.9233 6.20797 26.6315 6.293 26.3647C6.37802 26.098 6.61322 25.9071 6.89178 25.8787C9.38968 25.6247 10.9433 24.6851 11.8665 23.8426C12.3318 23.418 12.6435 23.0119 12.8361 22.7184C12.9323 22.5717 12.9985 22.4536 13.039 22.3761C13.0592 22.3374 13.073 22.3089 13.0808 22.2922C13.0847 22.2838 13.0871 22.2784 13.0881 22.2761L13.0881 22.2763L13.0876 22.2774L13.0873 22.2781M13.0885 22.2753C13.0884 22.2755 13.0883 22.2758 13.0881 22.2761L13.0886 22.275L13.0887 22.2749C13.0887 22.2749 13.0886 22.275 13.0885 22.2753Z" fill="#1A1D1E"/>
<path fill-rule="evenodd" clip-rule="evenodd" d="M28.1618 30.2256C27.9284 29.9766 27.5374 29.9658 27.2908 30.1993L27.2881 30.2018L27.2881 30.2018C27.0405 30.4338 27.026 30.8211 27.2643 31.0755C27.4977 31.3246 27.8887 31.3353 28.1352 31.1019L28.1379 31.0993L28.138 31.0993C28.387 30.8659 28.3978 30.4749 28.1643 30.2284L28.1618 30.2257L28.1618 30.2256ZM29.1868 29.2629C28.4192 28.445 27.1359 28.4107 26.3253 29.1768C25.5056 29.9462 25.4755 31.2229 26.238 32.0369C27.0055 32.8561 28.2897 32.8908 29.1007 32.1243C29.9186 31.3567 29.9529 30.0735 29.1868 29.2629Z" fill="#1A1D1E"/>
<path fill-rule="evenodd" clip-rule="evenodd" d="M10.6248 18.5449C10.0532 18.5449 9.58984 19.0083 9.58984 19.5799C9.58984 20.1515 10.0532 20.6149 10.6248 20.6149C11.1965 20.6149 11.6598 20.1515 11.6598 19.5799C11.6598 19.0083 11.1965 18.5449 10.6248 18.5449ZM8.18359 19.5799C8.18359 18.2317 9.27658 17.1387 10.6248 17.1387C11.9731 17.1387 13.0661 18.2317 13.0661 19.5799C13.0661 20.9282 11.9731 22.0212 10.6248 22.0212C9.27658 22.0212 8.18359 20.9282 8.18359 19.5799Z" fill="#1A1D1E"/>
<path fill-rule="evenodd" clip-rule="evenodd" d="M25.5513 21.8487C25.4165 21.7044 25.1812 21.6923 25.0264 21.837C24.8822 21.9719 24.8701 22.2072 25.0148 22.362C25.1496 22.5062 25.385 22.5183 25.5397 22.3736C25.6839 22.2387 25.696 22.0034 25.5513 21.8487ZM24.0659 20.8099C24.7775 20.1446 25.9034 20.1662 26.5785 20.8882C27.2438 21.5997 27.2222 22.7257 26.5002 23.4008C25.7887 24.0661 24.6627 24.0444 23.9876 23.3224C23.3223 22.6109 23.3439 21.485 24.0659 20.8099Z" fill="#1A1D1E"/>
<path fill-rule="evenodd" clip-rule="evenodd" d="M21.5762 34.3125C21.5762 33.9242 21.891 33.6094 22.2793 33.6094H22.8305C23.2189 33.6094 23.5337 33.9242 23.5337 34.3125C23.5337 34.7008 23.2189 35.0156 22.8305 35.0156H22.2793C21.891 35.0156 21.5762 34.7008 21.5762 34.3125Z" fill="#1A1D1E"/>
<path fill-rule="evenodd" clip-rule="evenodd" d="M8.75781 23.6582C8.75781 23.2699 9.07261 22.9551 9.46094 22.9551H10.0066C10.3949 22.9551 10.7097 23.2699 10.7097 23.6582C10.7097 24.0465 10.3949 24.3613 10.0066 24.3613H9.46094C9.07261 24.3613 8.75781 24.0465 8.75781 23.6582Z" fill="#1A1D1E"/>
<path fill-rule="evenodd" clip-rule="evenodd" d="M25.041 27.0176C25.041 26.6293 25.3558 26.3145 25.7441 26.3145H26.2954C26.6837 26.3145 26.9985 26.6293 26.9985 27.0176C26.9985 27.4059 26.6837 27.7207 26.2954 27.7207H25.7441C25.3558 27.7207 25.041 27.4059 25.041 27.0176Z" fill="#1A1D1E"/>
</svg>
