<svg width="20" height="20" viewBox="0 0 20 20" fill="none" xmlns="http://www.w3.org/2000/svg">
<g clip-path="url(#clip0_0_255)">
<path d="M19.0108 11.3818L17.4095 5.6858C16.9401 4.0171 15.92 2.55139 14.5113 1.52166C13.1026 0.491935 11.3862 -0.0427253 9.6349 0.00266955C7.88358 0.0480644 6.19786 0.67091 4.84569 1.7722C3.49352 2.87349 2.55251 4.39003 2.17223 6.08075L0.932446 11.5926C0.795501 12.2017 0.798668 12.8333 0.941711 13.441C1.08475 14.0487 1.36402 14.6168 1.7589 15.1035C2.15377 15.5902 2.65417 15.983 3.22314 16.2529C3.79212 16.5228 4.41515 16.6629 5.04623 16.6629H5.98512C6.17856 17.6047 6.69539 18.4514 7.44803 19.0596C8.20068 19.6678 9.14285 20 10.1149 20C11.087 20 12.0292 19.6678 12.7818 19.0596C13.5344 18.4514 14.0513 17.6047 14.2447 16.6629H14.951C15.6006 16.6629 16.2415 16.5145 16.8235 16.2291C17.4055 15.9438 17.9129 15.5293 18.3061 15.0179C18.6992 14.5066 18.9675 13.9124 19.0899 13.2816C19.2123 12.6509 19.1855 12.0007 19.0117 11.3818H19.0108ZM10.1149 18.3293C9.59384 18.3272 9.08615 18.166 8.66132 17.8677C8.23648 17.5694 7.91524 17.1486 7.74155 16.6629H12.4883C12.3146 17.1486 11.9934 17.5694 11.5685 17.8677C11.1437 18.166 10.636 18.3272 10.1149 18.3293ZM16.9636 14.009C16.7288 14.317 16.4245 14.5667 16.075 14.7381C15.7255 14.9095 15.3403 14.9979 14.9501 14.9964H5.04623C4.66762 14.9963 4.29386 14.9122 3.95254 14.7502C3.61122 14.5883 3.31104 14.3526 3.07418 14.0606C2.83731 13.7686 2.66979 13.4277 2.58399 13.0632C2.4982 12.6986 2.49631 12.3196 2.57846 11.9542L3.8174 6.44154C4.11606 5.11353 4.85517 3.92233 5.91724 3.0573C6.97931 2.19228 8.30339 1.70306 9.67899 1.66743C11.0546 1.63181 12.4028 2.05181 13.5092 2.86068C14.6156 3.66954 15.4168 4.82085 15.7854 6.13158L17.3867 11.8276C17.4925 12.1987 17.5094 12.5891 17.4359 12.9677C17.3625 13.3464 17.2008 13.7029 16.9636 14.009Z" fill="#242A2D"/>
<rect x="9" width="11" height="11" rx="5.5" fill="#22BCFF"/>
</g>
<defs>
<clipPath id="clip0_0_255">
<rect width="20" height="20" fill="white"/>
</clipPath>
</defs>
</svg>
