<svg width="47" height="47" viewBox="0 0 47 47" fill="none" xmlns="http://www.w3.org/2000/svg">
<path d="M30.2918 0L41.1253 12.2012V44.8615C41.1334 45.4196 40.9197 45.958 40.531 46.3586C40.1424 46.7591 39.6106 46.989 39.0526 46.9977H7.94796C7.67144 46.9934 7.39847 46.9346 7.14465 46.8248C6.89082 46.715 6.66111 46.5563 6.46864 46.3577C6.27616 46.1592 6.12469 45.9246 6.02288 45.6675C5.92107 45.4103 5.87091 45.1357 5.87526 44.8591V2.1385C5.87526 0.95645 6.80351 0 7.94796 0H30.2894H30.2918ZM28.9194 3.2054H8.98666V43.7946H38.0139V14.9037H31.3657C29.709 14.9695 28.4282 14.7016 27.5117 13.9778C26.4448 13.1365 26.0547 11.703 26.1064 9.79245V3.21245H28.9288L28.9194 3.2054ZM25.6717 34.1807C26.5294 34.1807 27.2274 34.8998 27.2274 35.7834C27.2305 35.9908 27.1927 36.1968 27.1162 36.3896C27.0397 36.5824 26.926 36.7582 26.7815 36.907C26.637 37.0559 26.4647 37.1748 26.2742 37.257C26.0838 37.3392 25.879 37.3831 25.6717 37.3862H13.6514C13.444 37.3831 13.2393 37.3392 13.0488 37.257C12.8584 37.1748 12.686 37.0559 12.5416 36.907C12.3971 36.7582 12.2834 36.5824 12.2069 36.3896C12.1304 36.1968 12.0926 35.9908 12.0957 35.7834C12.0957 34.8998 12.7913 34.1807 13.6514 34.1807H25.6717ZM32.8509 25.6362C33.7087 25.6362 34.4066 26.3529 34.4066 27.2388C34.4097 27.4462 34.3719 27.6522 34.2954 27.845C34.2189 28.0378 34.1052 28.2136 33.9607 28.3624C33.8163 28.5113 33.6439 28.6302 33.4535 28.7124C33.2631 28.7946 33.0583 28.8385 32.8509 28.8415H13.6514C13.444 28.8385 13.2393 28.7946 13.0488 28.7124C12.8584 28.6302 12.686 28.5113 12.5416 28.3624C12.3971 28.2136 12.2834 28.0378 12.2069 27.845C12.1304 27.6522 12.0926 27.4462 12.0957 27.2388C12.0957 26.3529 12.7913 25.6362 13.6514 25.6362H32.8509ZM25.6717 17.0915C26.5294 17.0915 27.2274 17.8083 27.2274 18.6942C27.233 19.1127 27.0723 19.5163 26.7807 19.8163C26.489 20.1164 26.0901 20.2884 25.6717 20.2946H13.6514C13.233 20.2884 12.8341 20.1164 12.5424 19.8163C12.2507 19.5163 12.0901 19.1127 12.0957 18.6942C12.0957 17.8083 12.7913 17.0915 13.6514 17.0915H25.6717ZM29.1027 3.4075L29.2155 3.54615V9.83475C29.1873 10.8664 29.3259 11.3763 29.4035 11.4327C29.6267 11.6113 30.2448 11.7406 31.307 11.7007H36.4605L37.3418 12.697L38.0139 13.4467L29.1027 3.4075Z" fill="#738B96"/>
</svg>
