<svg width="16" height="16" viewBox="0 0 16 16" fill="none" xmlns="http://www.w3.org/2000/svg">
<g clip-path="url(#clip0_1_5784)">
<path d="M15.414 6.04542L10.3573 0.988089C9.7315 0.364082 8.88378 0.0136719 8.00001 0.0136719C7.11623 0.0136719 6.26851 0.364082 5.64267 0.988089L0.586008 6.04542C0.399625 6.23061 0.251855 6.45096 0.151263 6.69368C0.0506715 6.9364 -0.000740267 7.19668 8.05299e-06 7.45942V14.0041C8.05299e-06 14.5345 0.210722 15.0432 0.585795 15.4183C0.960867 15.7934 1.46958 16.0041 2.00001 16.0041H14C14.5304 16.0041 15.0391 15.7934 15.4142 15.4183C15.7893 15.0432 16 14.5345 16 14.0041V7.45942C16.0008 7.19668 15.9493 6.9364 15.8488 6.69368C15.7482 6.45096 15.6004 6.23061 15.414 6.04542ZM10 14.6708H6.00001V12.0481C6.00001 11.5177 6.21072 11.0089 6.58579 10.6339C6.96087 10.2588 7.46958 10.0481 8.00001 10.0481C8.53044 10.0481 9.03915 10.2588 9.41422 10.6339C9.7893 11.0089 10 11.5177 10 12.0481V14.6708ZM14.6667 14.0041C14.6667 14.1809 14.5964 14.3505 14.4714 14.4755C14.3464 14.6005 14.1768 14.6708 14 14.6708H11.3333V12.0481C11.3333 11.164 10.9822 10.3162 10.357 9.69107C9.73191 9.06595 8.88406 8.71476 8.00001 8.71476C7.11595 8.71476 6.26811 9.06595 5.64299 9.69107C5.01786 10.3162 4.66667 11.164 4.66667 12.0481V14.6708H2.00001C1.8232 14.6708 1.65363 14.6005 1.5286 14.4755C1.40358 14.3505 1.33334 14.1809 1.33334 14.0041V7.45942C1.33396 7.28274 1.40413 7.11341 1.52867 6.98809L6.58534 1.93276C6.96114 1.55871 7.46979 1.34872 8.00001 1.34872C8.53023 1.34872 9.03888 1.55871 9.41467 1.93276L14.4713 6.99009C14.5954 7.11492 14.6655 7.28344 14.6667 7.45942V14.0041Z" fill="#1A1D1E"/>
</g>
<defs>
<clipPath id="clip0_1_5784">
<rect width="16" height="16" fill="white"/>
</clipPath>
</defs>
</svg>
