<svg width="16" height="16" viewBox="0 0 16 16" fill="none" xmlns="http://www.w3.org/2000/svg">
<path d="M13 1H3C2.27106 1.00132 1.57236 1.29148 1.05692 1.80692C0.541477 2.32236 0.251322 3.02106 0.25 3.75V12.25C0.25 13.765 1.485 15 3 15H13C14.515 15 15.75 13.765 15.75 12.25V3.75C15.75 2.235 14.515 1 13 1ZM14.25 7.16L12.11 5.02C11.825 4.735 11.365 4.725 11.07 5L7.38 8.43L5.51 6.56C5.225 6.275 4.765 6.265 4.47 6.54L1.75 9.065V3.75C1.75 3.41848 1.8817 3.10054 2.11612 2.86612C2.35054 2.6317 2.66848 2.5 3 2.5H13C13.3315 2.5 13.6495 2.6317 13.8839 2.86612C14.1183 3.10054 14.25 3.41848 14.25 3.75V7.16Z" fill="#FF3E4C"/>
</svg>
