<svg width="36" height="36" viewBox="0 0 36 36" fill="none" xmlns="http://www.w3.org/2000/svg">
<g clip-path="url(#clip0_0_50)">
<path d="M34.5214 25.1987L28.862 22.1795C28.8828 21.8959 28.8209 21.6123 28.6839 21.363C28.5469 21.1138 28.3406 20.9095 28.09 20.775L26.9203 20.1499C26.6215 19.9902 26.2767 19.9388 25.9443 20.0042C25.6118 20.0696 25.3122 20.248 25.0962 20.509L24.6813 20.2871C24.3497 20.1092 24.0695 19.8489 23.8679 19.5311C23.8191 19.4523 23.7749 19.3708 23.7355 19.2869C23.7745 19.2026 23.819 19.1209 23.8687 19.0424C24.069 18.7241 24.3494 18.4639 24.6817 18.288L25.0959 18.0672C25.2788 18.2895 25.5235 18.4526 25.7991 18.536C25.9837 18.5928 26.1777 18.6124 26.3699 18.5936C26.5621 18.5748 26.7487 18.5181 26.9188 18.4266L28.0908 17.8016C28.3414 17.667 28.5476 17.4628 28.6845 17.2135C28.8215 16.9643 28.8833 16.6807 28.8624 16.3971L34.5218 13.379C34.8426 13.2111 35.127 12.9813 35.3585 12.703C35.5901 12.4246 35.7642 12.1031 35.871 11.7572C35.9777 11.4112 36.0149 11.0475 35.9804 10.687C35.946 10.3266 35.8405 9.97654 35.6701 9.65706C35.4997 9.33758 35.2677 9.05499 34.9876 8.82557C34.7075 8.59615 34.3847 8.42445 34.0379 8.32036C33.6911 8.21627 33.3271 8.18186 32.967 8.21909C32.6068 8.25633 32.2576 8.36449 31.9394 8.53733L26.28 11.5593C26.0566 11.3827 25.7865 11.2753 25.5029 11.2502C25.2193 11.2252 24.9345 11.2835 24.6837 11.4182L23.5116 12.0433C23.2135 12.2032 22.9795 12.4607 22.8489 12.7728C22.7183 13.0848 22.699 13.4323 22.7943 13.7568L20.5792 14.9386L15.1729 12.0539C15.957 10.5782 16.2478 8.89011 16.0027 7.23712C15.7575 5.58413 14.9893 4.05313 13.8106 2.86855C13.3847 2.44837 12.9129 2.07738 12.4042 1.76253C12.2952 1.69436 12.1693 1.6582 12.0408 1.6582C11.9123 1.6582 11.7864 1.69436 11.6775 1.76253C11.17 2.07858 10.699 2.44977 10.273 2.86933C9.32998 3.81953 8.64598 4.99538 8.28619 6.28485C7.9264 7.57432 7.90279 8.93445 8.21764 10.2356C7.50511 10.4492 6.84221 10.8024 6.26758 11.2748C5.69296 11.7471 5.21809 12.3291 4.87067 12.9868C4.7856 13.1467 4.76753 13.3339 4.82042 13.5072C4.87332 13.6804 4.99285 13.8256 5.15274 13.9108L11.3599 17.2194V21.1302C10.9033 19.1231 9.67266 17.3776 7.93565 16.2733C6.19864 15.169 4.09583 14.7954 2.08472 15.2336C1.50009 15.3659 0.932233 15.5637 0.391897 15.8231C0.276674 15.8778 0.179026 15.9636 0.109988 16.0708C0.0409504 16.178 0.00327402 16.3024 0.00121569 16.4299C-0.0305608 18.2261 0.561463 19.9778 1.67641 21.3864C2.79136 22.7951 4.36025 23.7736 6.11577 24.1552L5.14961 24.6705C4.9897 24.756 4.87025 24.9014 4.8175 25.0749C4.76476 25.2483 4.78304 25.4356 4.86832 25.5956C5.48468 26.7597 6.48911 27.6713 7.70734 28.1722C8.92557 28.6731 10.2807 28.7317 11.5376 28.3378V33.6558C11.5376 33.8371 11.6097 34.011 11.7379 34.1392C11.8661 34.2675 12.04 34.3395 12.2213 34.3395C12.4027 34.3395 12.5766 34.2675 12.7048 34.1392C12.833 34.011 12.905 33.8371 12.905 33.6558V27.7393L20.5765 23.6438L22.7955 24.8252C22.7002 25.1499 22.7195 25.4976 22.8503 25.8097C22.981 26.1218 23.2153 26.3794 23.5136 26.5391L24.6833 27.1642C24.9342 27.2989 25.219 27.3573 25.5027 27.3323C25.7864 27.3072 26.0566 27.1998 26.28 27.0232L31.9386 30.0412C32.2569 30.2154 32.6065 30.3248 32.9673 30.363C33.3281 30.4012 33.6929 30.3675 34.0406 30.2638C34.3883 30.1601 34.7119 29.9884 34.9928 29.7588C35.2737 29.5292 35.5063 29.2461 35.677 28.926C35.8478 28.6059 35.9534 28.2551 35.9877 27.8939C36.022 27.5327 35.9843 27.1683 35.8769 26.8218C35.7694 26.4752 35.5942 26.1535 35.3616 25.8751C35.1289 25.5967 34.8434 25.3672 34.5214 25.1999V25.1987ZM24.0359 21.4951L24.4266 21.7041L23.4128 23.6043L20.9277 22.2815C20.9093 22.2706 20.8886 22.2604 20.8714 22.2514L20.7702 22.1975C20.4004 21.9972 20.123 21.661 19.9967 21.2599C19.7676 20.5109 19.2518 19.8828 18.5617 19.5124L17.0216 18.6919L17.0041 18.6825L12.7261 16.4006V14.7769C13.114 14.5154 13.4778 14.2199 13.8134 13.894C14.0294 13.6757 14.2322 13.4447 14.4205 13.2021L21.016 16.7209C21.3487 16.9001 21.6293 17.1624 21.8306 17.4823C22.0318 17.8022 22.1467 18.1687 22.1642 18.5462C22.1823 18.8735 22.245 19.1969 22.3505 19.5073C22.44 19.7725 22.5608 20.0262 22.7104 20.2628C23.0389 20.7808 23.4955 21.2052 24.0359 21.4951ZM24.0398 17.0827C23.7961 17.2137 23.5687 17.3731 23.3624 17.5574C23.1216 16.8159 22.6446 16.1737 22.0044 15.729L23.4128 14.9773L23.8425 15.7825L24.4258 16.8764L24.0398 17.0827ZM32.5829 9.74766C32.9049 9.57593 33.2819 9.53913 33.631 9.64537C33.9801 9.75161 34.2727 9.99217 34.4445 10.3141C34.616 10.6363 34.6527 11.0134 34.5465 11.3625C34.4403 11.7117 34.1999 12.0045 33.878 12.1765L28.3303 15.1344L27.0368 12.7055L32.5829 9.74766ZM24.1567 13.2486L25.3287 12.6235C25.3527 12.6108 25.3808 12.6081 25.4068 12.6161C25.4328 12.6241 25.4546 12.642 25.4674 12.6661L27.4903 16.4588C27.5028 16.4829 27.5054 16.511 27.4974 16.537C27.4895 16.563 27.4716 16.5849 27.4478 16.5979L26.2757 17.223C26.2639 17.2296 26.2509 17.2336 26.2374 17.2349C26.224 17.2362 26.2104 17.2346 26.1976 17.2304C26.1846 17.2265 26.1725 17.2201 26.1621 17.2115C26.1516 17.2029 26.1429 17.1923 26.1366 17.1804L25.5873 16.1501L24.2981 13.7303C24.2981 13.7268 24.293 13.7236 24.291 13.7201L24.1141 13.388C24.1013 13.3639 24.0987 13.3356 24.1066 13.3095C24.1146 13.2834 24.1326 13.2615 24.1567 13.2486ZM11.2364 3.84017C11.4862 3.5934 11.7556 3.36736 12.042 3.16429C13.4048 4.12622 14.3365 5.58368 14.6375 7.22434C14.9385 8.86499 14.5849 10.5583 13.6524 11.9413L13.6497 11.9456C13.4169 12.2982 13.149 12.6263 12.8499 12.9247C12.8109 12.9638 12.7671 12.9989 12.7269 13.0368V8.38262C12.7269 8.20129 12.6548 8.0274 12.5266 7.89918C12.3984 7.77096 12.2245 7.69893 12.0432 7.69893C11.8619 7.69893 11.688 7.77096 11.5597 7.89918C11.4315 8.0274 11.3595 8.20129 11.3595 8.38262V13.0376C11.3204 13.0009 11.2778 12.9661 11.2396 12.9286C10.6425 12.3322 10.1688 11.624 9.84549 10.8445C9.52221 10.0649 9.35571 9.22936 9.35549 8.38545C9.35528 7.54155 9.52135 6.70587 9.84422 5.92617C10.1671 5.14647 10.6404 4.43803 11.2372 3.84134L11.2364 3.84017ZM6.44472 13.0524C6.99922 12.3175 7.77765 11.7827 8.66262 11.5288C9.04792 12.4115 9.59445 13.2147 10.2742 13.8971C10.6088 14.2226 10.9718 14.5177 11.3587 14.7789V15.6727L6.44472 13.0524ZM15.2382 19.2885L12.7261 20.6285V17.95L15.2382 19.2885ZM1.51315 17.9211C1.43862 17.5794 1.39288 17.232 1.37641 16.8827C1.70146 16.7508 2.03691 16.6463 2.37929 16.5701C4.04302 16.208 5.78244 16.5196 7.21703 17.4367C8.65162 18.3538 9.66458 19.8018 10.0343 21.4638C10.0464 21.5205 10.0527 21.5787 10.0632 21.6357L5.42231 18.6634C5.34669 18.615 5.26226 18.5819 5.17386 18.5661C5.08546 18.5503 4.99481 18.5521 4.90709 18.5713C4.81937 18.5905 4.7363 18.6268 4.66261 18.6782C4.58893 18.7295 4.52607 18.7948 4.47764 18.8705C4.42921 18.9461 4.39615 19.0305 4.38034 19.1189C4.36454 19.2073 4.3663 19.298 4.38553 19.3857C4.40475 19.4734 4.44107 19.5565 4.4924 19.6302C4.54374 19.7038 4.60908 19.7667 4.6847 19.8151L9.03103 22.6003L8.39227 22.9414C6.82924 23.0953 5.2642 22.6687 3.99552 21.7428C2.72684 20.817 1.84324 19.4566 1.51315 17.9211ZM6.44472 25.5292L10.5859 23.3195L11.1657 23.0105L16.6884 20.0648L17.9108 20.7164C18.2837 20.917 18.5624 21.2566 18.6863 21.6615C18.8154 22.071 19.0317 22.4477 19.3204 22.7656L11.9014 26.7251C10.9975 27.2042 9.95297 27.347 8.95371 27.128C7.95444 26.909 7.06534 26.3424 6.44472 25.5292ZM25.3271 25.9566L24.1551 25.3315C24.1311 25.3185 24.1132 25.2966 24.1052 25.2705C24.0973 25.2444 24.0999 25.2163 24.1125 25.1921L24.2942 24.8514V24.8494L25.9507 21.7435V21.74L26.1323 21.3993C26.1387 21.3874 26.1474 21.3768 26.1578 21.3683C26.1683 21.3597 26.1803 21.3532 26.1933 21.3493C26.203 21.3462 26.2131 21.3446 26.2234 21.3446C26.2402 21.3447 26.2567 21.349 26.2714 21.3571L27.4411 21.9822C27.4651 21.9952 27.483 22.0171 27.4911 22.0432C27.4991 22.0693 27.4966 22.0975 27.4841 22.1217L25.4662 25.9144C25.4599 25.9264 25.4513 25.9369 25.4409 25.9455C25.4305 25.9541 25.4186 25.9605 25.4057 25.9645C25.3927 25.9687 25.3791 25.9701 25.3656 25.9688C25.3521 25.9674 25.339 25.9633 25.3271 25.9566ZM34.4445 28.2671C34.2726 28.5891 33.98 28.8297 33.6308 28.9359C33.2816 29.0422 32.9045 29.0054 32.5825 28.8336L27.0348 25.8758L28.3299 23.4469L33.8776 26.4051C34.1995 26.5771 34.44 26.8697 34.5463 27.2188C34.6526 27.568 34.616 27.945 34.4445 28.2671Z" fill="#1A1D1E"/>
<path d="M20.1811 16.7871C19.866 16.7871 19.558 16.8805 19.296 17.0556C19.034 17.2307 18.8298 17.4795 18.7092 17.7706C18.5886 18.0617 18.557 18.3821 18.6185 18.6911C18.68 19.0002 18.8317 19.2841 19.0545 19.5069C19.2773 19.7297 19.5612 19.8814 19.8703 19.9429C20.1793 20.0044 20.4997 19.9728 20.7908 19.8522C21.0819 19.7316 21.3307 19.5274 21.5058 19.2654C21.6808 19.0034 21.7743 18.6954 21.7743 18.3803C21.7739 17.9579 21.6059 17.5529 21.3072 17.2542C21.0085 16.9555 20.6035 16.7875 20.1811 16.7871ZM20.1811 18.6061C20.1364 18.6061 20.0928 18.5929 20.0556 18.5681C20.0185 18.5433 19.9896 18.508 19.9725 18.4667C19.9554 18.4255 19.9509 18.3801 19.9596 18.3363C19.9683 18.2924 19.9898 18.2522 20.0214 18.2206C20.053 18.1891 20.0932 18.1675 20.137 18.1588C20.1808 18.1501 20.2262 18.1546 20.2675 18.1717C20.3088 18.1888 20.344 18.2177 20.3688 18.2549C20.3937 18.292 20.4069 18.3356 20.4069 18.3803C20.4064 18.4399 20.3824 18.4968 20.3401 18.5387C20.2978 18.5806 20.2406 18.6042 20.1811 18.6042V18.6061Z" fill="#1A1D1E"/>
</g>
<defs>
<clipPath id="clip0_0_50">
<rect width="36" height="36" fill="white"/>
</clipPath>
</defs>
</svg>
