<svg width="36" height="36" viewBox="0 0 36 36" fill="none" xmlns="http://www.w3.org/2000/svg">
<path fill-rule="evenodd" clip-rule="evenodd" d="M10.62 11.7227C7.47582 11.7227 4.92188 14.2766 4.92188 17.4208V21.0827H9.2925V18.6808C9.2925 17.1393 10.541 15.8908 12.0825 15.8908H14.58C14.9683 15.8908 15.2831 16.2056 15.2831 16.5939C15.2831 16.9822 14.9683 17.297 14.58 17.297H12.0825C11.3177 17.297 10.6988 17.916 10.6988 18.6808V21.7858C10.6988 22.1741 10.384 22.4889 9.99563 22.4889H4.21875C3.83042 22.4889 3.51562 22.1741 3.51562 21.7858V17.4208C3.51562 13.5 6.69917 10.3164 10.62 10.3164H14.6306C15.0189 10.3164 15.3337 10.6312 15.3337 11.0195C15.3337 11.4079 15.0189 11.7227 14.6306 11.7227H10.62Z" fill="#1A1D1E"/>
<path fill-rule="evenodd" clip-rule="evenodd" d="M18.8597 9.44922C16.4303 9.44922 14.4609 11.4186 14.4609 13.848C14.4609 16.2773 16.4303 18.2467 18.8597 18.2467C21.2891 18.2467 23.2584 16.2773 23.2584 13.848C23.2584 11.4186 21.2891 9.44922 18.8597 9.44922ZM13.0547 13.848C13.0547 10.642 15.6537 8.04297 18.8597 8.04297C22.0657 8.04297 24.6647 10.642 24.6647 13.848C24.6647 17.054 22.0657 19.653 18.8597 19.653C15.6537 19.653 13.0547 17.054 13.0547 13.848Z" fill="#1A1D1E"/>
<path fill-rule="evenodd" clip-rule="evenodd" d="M18.8606 3.07617C18.3827 3.07617 18 3.45887 18 3.9368V8.9993C18 9.38762 17.6852 9.70242 17.2969 9.70242C16.9085 9.70242 16.5938 9.38762 16.5938 8.9993V3.9368C16.5938 2.68222 17.606 1.66992 18.8606 1.66992C20.1152 1.66992 21.1275 2.68222 21.1275 3.9368V8.9993C21.1275 9.38762 20.8127 9.70242 20.4244 9.70242C20.0361 9.70242 19.7213 9.38762 19.7213 8.9993V3.9368C19.7213 3.45887 19.3385 3.07617 18.8606 3.07617Z" fill="#1A1D1E"/>
<path fill-rule="evenodd" clip-rule="evenodd" d="M12.1326 3.0405C12.1325 3.04049 12.1327 3.04051 12.1326 3.0405L17.3632 3.53544C17.7498 3.57202 18.0335 3.91508 17.997 4.30167C17.9604 4.68827 17.6173 4.97202 17.2307 4.93544L11.9988 4.44037C11.6481 4.40685 11.3457 4.68254 11.3457 5.03419V5.60231C11.3457 5.96084 11.66 6.2398 12.0204 6.19313L17.207 5.52372C17.5921 5.47401 17.9446 5.74593 17.9943 6.13106C18.044 6.51619 17.7721 6.8687 17.387 6.9184L12.201 7.58774C12.2009 7.58775 12.2011 7.58773 12.201 7.58774C10.9978 7.74338 9.93945 6.80743 9.93945 5.60231V5.03419C9.93945 3.85595 10.9535 2.928 12.1326 3.0405Z" fill="#1A1D1E"/>
<path fill-rule="evenodd" clip-rule="evenodd" d="M26.381 5.03418C26.381 4.68254 26.0786 4.40684 25.7279 4.44037L20.496 4.93543C20.1094 4.97201 19.7663 4.68827 19.7298 4.30167C19.6932 3.91507 19.9769 3.57202 20.3635 3.53544L25.5941 3.0405C25.594 3.04051 25.5942 3.04049 25.5941 3.0405C26.7732 2.92802 27.7873 3.85596 27.7873 5.03418V5.60231C27.7873 6.80743 26.7293 7.74342 25.526 7.58777L20.3398 6.9184C19.9546 6.86869 19.6827 6.51619 19.7324 6.13106C19.7821 5.74592 20.1346 5.47401 20.5198 5.52372L25.706 6.19309C26.0664 6.23976 26.381 5.96084 26.381 5.60231V5.03418Z" fill="#1A1D1E"/>
<path fill-rule="evenodd" clip-rule="evenodd" d="M22.3984 11.0078C22.3984 10.6195 22.7132 10.3047 23.1016 10.3047H29.5197C29.908 10.3047 30.2228 10.6195 30.2228 11.0078C30.2228 11.3961 29.908 11.7109 29.5197 11.7109H23.1016C22.7132 11.7109 22.3984 11.3961 22.3984 11.0078Z" fill="#1A1D1E"/>
<path fill-rule="evenodd" clip-rule="evenodd" d="M22.3652 16.7402C22.3652 16.3519 22.68 16.0371 23.0684 16.0371H29.5202C29.9086 16.0371 30.2234 16.3519 30.2234 16.7402C30.2234 17.1286 29.9086 17.4434 29.5202 17.4434H23.0684C22.68 17.4434 22.3652 17.1286 22.3652 16.7402Z" fill="#1A1D1E"/>
<path fill-rule="evenodd" clip-rule="evenodd" d="M2.2832 22.4205C2.2832 21.6778 2.88488 21.0762 3.62758 21.0762H10.8276C11.5703 21.0762 12.172 21.6778 12.172 22.4205V23.4837C12.172 24.2264 11.5703 24.828 10.8276 24.828H3.62758C2.88488 24.828 2.2832 24.2264 2.2832 23.4837V22.4205ZM3.68945 22.4824V23.4218H10.7657V22.4824H3.68945Z" fill="#1A1D1E"/>
<path fill-rule="evenodd" clip-rule="evenodd" d="M30.5827 8.3125C30.3836 8.3125 30.2227 8.47262 30.2227 8.6725V19.4219C30.2227 19.621 30.3828 19.7819 30.5827 19.7819H31.9495C32.1556 19.7819 32.3114 19.6163 32.3096 19.4286L32.3095 19.4219H32.3095V8.6725C32.3095 8.4734 32.1494 8.3125 31.9495 8.3125H30.5827ZM28.8164 8.6725C28.8164 7.69113 29.6118 6.90625 30.5827 6.90625H31.9495C32.9309 6.90625 33.7158 7.7016 33.7158 8.6725V19.4189C33.7231 20.3995 32.9234 21.1881 31.9495 21.1881H30.5827C29.6013 21.1881 28.8164 20.3928 28.8164 19.4219V8.6725Z" fill="#1A1D1E"/>
<path fill-rule="evenodd" clip-rule="evenodd" d="M7.07266 26.2286C7.29916 26.2261 7.51298 26.3328 7.64708 26.5154C8.49661 27.672 9.44234 29.6327 9.57424 31.2792C9.64007 32.1008 9.51388 33.0047 8.87493 33.6358C8.22249 34.2802 7.23263 34.4497 6.02194 34.2518L6.02133 34.2517C5.4894 34.1642 5.0365 33.9521 4.70573 33.5926C4.37679 33.2351 4.22829 32.7967 4.18357 32.3648C4.0978 31.5365 4.37839 30.5892 4.71278 29.7735C5.05726 28.9331 5.50632 28.1219 5.86345 27.528C6.0431 27.2292 6.20189 26.9814 6.3163 26.8075C6.37355 26.7205 6.41981 26.6518 6.45215 26.6043C6.46833 26.5805 6.48104 26.5621 6.48992 26.5492L6.50032 26.5342L6.50328 26.53L6.50418 26.5287C6.5043 26.5285 6.5047 26.528 7.0804 26.9316L6.5047 26.528C6.63474 26.3425 6.84617 26.231 7.07266 26.2286ZM7.07926 28.2349C7.07573 28.2408 7.07219 28.2467 7.06863 28.2526C6.73002 28.8158 6.32057 29.5588 6.01395 30.3068C5.69725 31.0795 5.53416 31.7546 5.58234 32.2199C5.60459 32.4348 5.66747 32.561 5.74058 32.6404C5.81184 32.7179 5.95157 32.815 6.24903 32.864C7.25728 33.0288 7.69542 32.8243 7.88673 32.6353C8.09153 32.433 8.22478 32.0442 8.17249 31.3915C8.09438 30.4165 7.62598 29.2102 7.07926 28.2349Z" fill="#1A1D1E"/>
</svg>
