<svg width="22" height="22" viewBox="0 0 22 22" fill="none" xmlns="http://www.w3.org/2000/svg">
<path d="M19.9437 2.05764C19.8004 1.91444 19.6061 1.83398 19.4036 1.83398C19.201 1.83398 19.0068 1.91444 18.8635 2.05764L11.0007 9.92049L3.1378 2.05764C2.99455 1.91444 2.80028 1.83398 2.59772 1.83398C2.39516 1.83398 2.2009 1.91444 2.05764 2.05764C1.91444 2.2009 1.83398 2.39516 1.83398 2.59772C1.83398 2.80028 1.91444 2.99455 2.05764 3.1378L9.92049 11.0007L2.05764 18.8635C1.91444 19.0068 1.83398 19.201 1.83398 19.4036C1.83398 19.6061 1.91444 19.8004 2.05764 19.9437C2.2009 20.0869 2.39516 20.1673 2.59772 20.1673C2.80028 20.1673 2.99455 20.0869 3.1378 19.9437L11.0007 12.0808L18.8635 19.9437C19.0068 20.0869 19.201 20.1673 19.4036 20.1673C19.6061 20.1673 19.8004 20.0869 19.9437 19.9437C20.0869 19.8004 20.1673 19.6061 20.1673 19.4036C20.1673 19.201 20.0869 19.0068 19.9437 18.8635L12.0808 11.0007L19.9437 3.1378C20.0869 2.99455 20.1673 2.80028 20.1673 2.59772C20.1673 2.39516 20.0869 2.2009 19.9437 2.05764Z" fill="#FCFEFF"/>
</svg>
