<svg width="24" height="24" viewBox="0 0 24 24" fill="none" xmlns="http://www.w3.org/2000/svg">
<g clip-path="url(#clip0_0_295)">
<path d="M24.0011 11.2476C23.8565 8.90758 23.0303 6.66108 21.6243 4.78499C20.2184 2.9089 18.2941 1.48526 16.0888 0.689559C13.8836 -0.106139 11.4936 -0.239103 9.21369 0.307059C6.93375 0.853221 4.86347 2.05463 3.25808 3.76318C1.65269 5.47173 0.582369 7.61273 0.179071 9.92222C-0.224228 12.2317 0.0571252 14.6088 0.988445 16.7603C1.91976 18.9118 3.46034 20.7438 5.42024 22.0303C7.38014 23.3169 9.67369 24.0018 12.0181 24.0006H19.0011C20.3268 23.9992 21.5978 23.472 22.5352 22.5346C23.4726 21.5972 23.9998 20.3262 24.0011 19.0006V11.2476ZM22.0011 19.0006C22.0011 19.7962 21.6851 20.5593 21.1224 21.1219C20.5598 21.6845 19.7968 22.0006 19.0011 22.0006H12.0181C10.6071 21.9999 9.21197 21.7019 7.92383 21.1259C6.63568 20.5499 5.4834 19.7088 4.54213 18.6576C3.5963 17.6068 2.88606 16.366 2.45902 15.0184C2.03199 13.6707 1.89803 12.2473 2.06613 10.8436C2.33156 8.62951 3.32632 6.56675 4.89357 4.98049C6.46082 3.39422 8.51143 2.37467 10.7221 2.08256C11.1534 2.02851 11.5875 2.00113 12.0221 2.00056C14.3526 1.99421 16.6109 2.80847 18.4011 4.30056C19.4467 5.16951 20.3048 6.24172 20.9237 7.45219C21.5425 8.66267 21.909 9.9862 22.0011 11.3426V19.0006Z" fill="#7B8D95"/>
<path d="M8 9H12C12.2652 9 12.5196 8.89464 12.7071 8.7071C12.8946 8.51957 13 8.26521 13 8C13 7.73478 12.8946 7.48043 12.7071 7.29289C12.5196 7.10536 12.2652 7 12 7H8C7.73478 7 7.48043 7.10536 7.29289 7.29289C7.10536 7.48043 7 7.73478 7 8C7 8.26521 7.10536 8.51957 7.29289 8.7071C7.48043 8.89464 7.73478 9 8 9Z" fill="#7B8D95"/>
<path d="M16 11H8C7.73478 11 7.48043 11.1054 7.29289 11.2929C7.10536 11.4804 7 11.7348 7 12C7 12.2652 7.10536 12.5196 7.29289 12.7071C7.48043 12.8947 7.73478 13 8 13H16C16.2652 13 16.5196 12.8947 16.7071 12.7071C16.8946 12.5196 17 12.2652 17 12C17 11.7348 16.8946 11.4804 16.7071 11.2929C16.5196 11.1054 16.2652 11 16 11Z" fill="#7B8D95"/>
<path d="M16 15H8C7.73478 15 7.48043 15.1054 7.29289 15.2929C7.10536 15.4804 7 15.7348 7 16C7 16.2652 7.10536 16.5196 7.29289 16.7071C7.48043 16.8947 7.73478 17 8 17H16C16.2652 17 16.5196 16.8947 16.7071 16.7071C16.8946 16.5196 17 16.2652 17 16C17 15.7348 16.8946 15.4804 16.7071 15.2929C16.5196 15.1054 16.2652 15 16 15Z" fill="#7B8D95"/>
</g>
<defs>
<clipPath id="clip0_0_295">
<rect width="24" height="24" fill="white"/>
</clipPath>
</defs>
</svg>
