<svg width="20" height="20" viewBox="0 0 20 20" fill="none" xmlns="http://www.w3.org/2000/svg">
<g clip-path="url(#clip0_0_437)">
<path d="M10 10C10.6593 10 11.3038 9.8045 11.8519 9.43823C12.4001 9.07196 12.8274 8.55136 13.0796 7.94228C13.3319 7.33319 13.3979 6.66297 13.2693 6.01637C13.1407 5.36976 12.8232 4.77582 12.3571 4.30964C11.8909 3.84347 11.297 3.526 10.6503 3.39738C10.0037 3.26876 9.33352 3.33478 8.72443 3.58707C8.11535 3.83936 7.59475 4.2666 7.22848 4.81477C6.86221 5.36293 6.66671 6.0074 6.66671 6.66667C6.66671 7.55072 7.0179 8.39857 7.64302 9.02369C8.26814 9.64881 9.11599 10 10 10ZM10 5C10.3297 5 10.6519 5.09775 10.926 5.28088C11.2001 5.46402 11.4137 5.72432 11.5398 6.02886C11.666 6.3334 11.699 6.66852 11.6347 6.99182C11.5704 7.31512 11.4116 7.61209 11.1786 7.84518C10.9455 8.07827 10.6485 8.237 10.3252 8.30131C10.0019 8.36562 9.66678 8.33261 9.36224 8.20647C9.0577 8.08032 8.7974 7.8667 8.61426 7.59262C8.43113 7.31853 8.33338 6.9963 8.33338 6.66667C8.33338 6.22464 8.50898 5.80072 8.82154 5.48816C9.1341 5.17559 9.55802 5 10 5ZM17.2167 7.63083L16.6175 7.43167C16.7254 6.49827 16.6347 5.55262 16.3514 4.65674C16.0681 3.76085 15.5986 2.93497 14.9738 2.23324C14.3489 1.53152 13.5828 0.9698 12.7257 0.584928C11.8685 0.200056 10.9397 0.000722901 10 0C9.04818 0.000367475 8.10744 0.204745 7.24123 0.599362C6.37501 0.99398 5.60343 1.56967 4.97848 2.28765C4.35353 3.00562 3.88972 3.84921 3.6183 4.76156C3.34689 5.67391 3.27417 6.63384 3.40505 7.57667C2.60757 7.72536 1.87015 8.1016 1.28171 8.66C0.874358 9.04729 0.550521 9.5138 0.330112 10.0309C0.109702 10.5479 -0.00262115 11.1046 4.64225e-05 11.6667V15.0625C0.00179775 15.9636 0.294873 16.84 0.835539 17.5609C1.3762 18.2818 2.13547 18.8085 3.00005 19.0625L5.39171 19.8125C5.79343 19.9375 6.21182 20.0007 6.63255 20C7.0142 19.9995 7.39404 19.9474 7.76171 19.845L12.5784 18.42C13.0075 18.3029 13.4601 18.3029 13.8892 18.42L15.8784 19.0867C16.3686 19.206 16.8796 19.2125 17.3727 19.1056C17.8658 18.9988 18.3282 18.7813 18.7251 18.4698C19.122 18.1582 19.4429 17.7606 19.6638 17.3069C19.8846 16.8533 19.9996 16.3554 20 15.8508V11.56C19.9982 10.6978 19.7297 9.85737 19.2314 9.15379C18.7331 8.45021 18.0294 7.91796 17.2167 7.63V7.63083ZM6.46505 3.135C6.92859 2.66957 7.47949 2.30027 8.08612 2.04828C8.69274 1.79628 9.34316 1.66657 10 1.66657C10.6569 1.66657 11.3073 1.79628 11.914 2.04828C12.5206 2.30027 13.0715 2.66957 13.535 3.135C14.4702 4.07595 14.9958 5.34818 14.9975 6.67478C14.9992 8.00138 14.4769 9.27496 13.5442 10.2183L10.5834 13.0975C10.4288 13.249 10.2211 13.3339 10.0046 13.3339C9.78821 13.3339 9.58041 13.249 9.42588 13.0975L6.46505 10.2308C5.52794 9.28782 5.00197 8.01237 5.00197 6.68292C5.00197 5.35347 5.52794 4.07801 6.46505 3.135ZM18.3334 15.8508C18.3339 16.1032 18.2768 16.3524 18.1665 16.5794C18.0562 16.8064 17.8955 17.0053 17.6967 17.1608C17.5089 17.3118 17.2901 17.4196 17.0559 17.4765C16.8217 17.5334 16.5779 17.538 16.3417 17.49L14.3875 16.8333C13.6484 16.621 12.865 16.6164 12.1234 16.82L7.30338 18.2433C6.84028 18.3711 6.35017 18.3627 5.89171 18.2192L3.48005 17.4692C2.95809 17.3182 2.49918 17.002 2.17221 16.5681C1.84525 16.1341 1.66787 15.6058 1.66671 15.0625V11.6667C1.66484 11.3298 1.73189 10.9961 1.86373 10.6862C1.99558 10.3762 2.18943 10.0965 2.43338 9.86417C2.81526 9.50022 3.30173 9.26529 3.82421 9.1925C4.16013 10.0251 4.66036 10.7816 5.29505 11.4167L8.26755 14.2942C8.73214 14.7491 9.35648 15.0039 10.0067 15.0039C10.6569 15.0039 11.2813 14.7491 11.7459 14.2942L14.715 11.4083C15.3798 10.7409 15.8949 9.93948 16.2259 9.0575L16.6734 9.20583C17.1587 9.37973 17.5785 9.69913 17.8756 10.1204C18.1727 10.5418 18.3326 11.0445 18.3334 11.56V15.8508Z" fill="#242A2D"/>
</g>
<defs>
<clipPath id="clip0_0_437">
<rect width="20" height="20" fill="white"/>
</clipPath>
</defs>
</svg>
