<svg width="24" height="24" viewBox="0 0 24 24" fill="none" xmlns="http://www.w3.org/2000/svg">
<g clip-path="url(#clip0_1_5985)">
<path d="M22.9997 11C22.7345 11 22.4802 11.1054 22.2926 11.2929C22.1051 11.4804 21.9997 11.7348 21.9997 12C22.0079 14.3253 21.2081 16.5812 19.7372 18.3822C18.2664 20.1831 16.2157 21.4173 13.9356 21.8738C11.6556 22.3303 9.28777 21.9807 7.23691 20.8849C5.18605 19.789 3.57946 18.0148 2.69176 15.8657C1.80405 13.7165 1.69033 11.3257 2.37004 9.10201C3.04975 6.87828 4.48069 4.95966 6.41827 3.67407C8.35586 2.38849 10.6798 1.81575 12.9929 2.05377C15.3059 2.29179 17.4645 3.32578 19.0997 4.979C19.0668 4.98797 19.0334 4.99498 18.9997 5H15.9997C15.7345 5 15.4802 5.10536 15.2926 5.29289C15.1051 5.48043 14.9997 5.73478 14.9997 6C14.9997 6.26522 15.1051 6.51957 15.2926 6.70711C15.4802 6.89464 15.7345 7 15.9997 7H18.9997C19.7954 7 20.5584 6.68393 21.121 6.12132C21.6837 5.55871 21.9997 4.79565 21.9997 4V1C21.9997 0.734784 21.8944 0.48043 21.7068 0.292893C21.5193 0.105357 21.2649 0 20.9997 0C20.7345 0 20.4802 0.105357 20.2926 0.292893C20.1051 0.48043 19.9997 0.734784 19.9997 1V3.065C17.9523 1.23453 15.3386 0.162166 12.5956 0.0271026C9.8525 -0.107961 7.14617 0.702457 4.9288 2.32293C2.71143 3.94341 1.11736 6.27578 0.412948 8.9303C-0.291461 11.5848 -0.0635329 14.4007 1.05865 16.9074C2.18083 19.414 4.12928 21.4596 6.57841 22.7024C9.02754 23.9451 11.829 24.3097 14.5146 23.7353C17.2003 23.1608 19.6074 21.682 21.3338 19.5461C23.0602 17.4101 24.0012 14.7464 23.9997 12C23.9997 11.7348 23.8944 11.4804 23.7068 11.2929C23.5193 11.1054 23.2649 11 22.9997 11Z" fill="#22BCFF"/>
<path d="M12 6C11.7348 6 11.4804 6.10536 11.2929 6.29289C11.1054 6.48043 11 6.73478 11 7V12C11.0001 12.2652 11.1055 12.5195 11.293 12.707L14.293 15.707C14.4816 15.8892 14.7342 15.99 14.9964 15.9877C15.2586 15.9854 15.5094 15.8802 15.6948 15.6948C15.8802 15.5094 15.9854 15.2586 15.9877 14.9964C15.99 14.7342 15.8892 14.4816 15.707 14.293L13 11.586V7C13 6.73478 12.8946 6.48043 12.7071 6.29289C12.5196 6.10536 12.2652 6 12 6Z" fill="#22BCFF"/>
</g>
<defs>
<clipPath id="clip0_1_5985">
<rect width="24" height="24" fill="white"/>
</clipPath>
</defs>
</svg>
