<svg width="12" height="12" viewBox="0 0 12 12" fill="none" xmlns="http://www.w3.org/2000/svg">
<path d="M9.25713 10.1833C9.40654 10.6451 8.87644 11.0275 8.48529 10.74L6.29676 9.13154C6.12059 9.00206 5.88071 9.00206 5.70454 9.13155L3.51601 10.74C3.12486 11.0275 2.59476 10.6451 2.74417 10.1833L3.58931 7.5706C3.65576 7.3652 3.58287 7.14036 3.40857 7.013L1.20598 5.40363C0.815445 5.11828 1.01729 4.49991 1.50096 4.49991H4.21149C4.42877 4.49991 4.62118 4.35959 4.68758 4.15269L5.52456 1.54449C5.67313 1.08152 6.32817 1.08153 6.47674 1.54449L7.31373 4.15269C7.38012 4.35959 7.57253 4.49991 7.78981 4.49991H10.5C10.9837 4.49991 11.1855 5.11824 10.795 5.40361L8.5927 7.01299C8.41841 7.14036 8.34554 7.36519 8.41198 7.57058L9.25713 10.1833Z" fill="#EDEFF0"/>
</svg>
