<svg width="20" height="20" viewBox="0 0 20 20" fill="none" xmlns="http://www.w3.org/2000/svg">
<g clip-path="url(#clip0_0_405)">
<path d="M15.4835 1.78353L10.2627 0.0427007C10.0917 -0.0142336 9.90696 -0.0142336 9.73602 0.0427007L4.51435 1.78353C3.68443 2.05941 2.96253 2.58979 2.45122 3.29932C1.9399 4.00885 1.66516 4.86146 1.66602 5.73603V10.0002C1.66602 16.3027 9.33268 19.7835 9.66102 19.9285C9.76754 19.9759 9.8828 20.0003 9.99935 20.0003C10.1159 20.0003 10.2312 19.9759 10.3377 19.9285C10.666 19.7835 18.3327 16.3027 18.3327 10.0002V5.73603C18.3335 4.86136 18.0586 4.00867 17.5471 3.29913C17.0357 2.58958 16.3136 2.05927 15.4835 1.78353ZM16.666 10.0002C16.666 14.546 11.4002 17.5277 9.99935 18.241C8.59685 17.5302 3.33268 14.5577 3.33268 10.0002V5.73603C3.33267 5.21137 3.49773 4.7 3.80448 4.27434C4.11123 3.84869 4.54413 3.53034 5.04185 3.36437L9.99935 1.71187L14.956 3.36437C15.4539 3.53019 15.887 3.84849 16.1939 4.27415C16.5008 4.69982 16.666 5.21127 16.666 5.73603V10.0002Z" fill="#242A2D"/>
</g>
<defs>
<clipPath id="clip0_0_405">
<rect width="20" height="20" fill="white"/>
</clipPath>
</defs>
</svg>
