<svg width="36" height="36" viewBox="0 0 36 36" fill="none" xmlns="http://www.w3.org/2000/svg">
<g clip-path="url(#clip0_0_62)">
<path d="M32.7722 15.1389L32.7719 15.1389C32.1571 15.1745 31.5757 14.9543 31.1394 14.5181C30.7033 14.0819 30.4824 13.5011 30.5186 12.8853M32.7722 15.1389L30.6684 12.8941M32.7722 15.1389C33.0301 15.1235 33.2822 15.2195 33.4649 15.4022L35.585 17.5224L35.6911 17.4163M32.7722 15.1389L35.6911 17.4163M30.5186 12.8853L30.6684 12.8941M30.5186 12.8853C30.5186 12.8853 30.5186 12.8853 30.5186 12.8853L30.6684 12.8941M30.5186 12.8853C30.523 12.8102 30.5181 12.7348 30.5039 12.6609L30.6512 12.6325M30.6684 12.8941C30.6735 12.8066 30.6677 12.7187 30.6512 12.6325M30.6512 12.6325L30.5039 12.6609L30.6512 12.6325ZM35.6911 17.4163L35.585 17.5224C35.9383 17.8756 35.9383 18.4484 35.5848 18.8017L35.5848 18.8017L30.4397 23.9469L30.4397 23.9469C30.27 24.1166 30.0399 24.2119 29.8 24.2119C29.5601 24.2119 29.33 24.1166 29.1604 23.9469L27.0402 21.8268L27.0402 21.8268M35.6911 17.4163L27.0402 21.8268M10.5896 2.62913L10.4835 2.52307L10.5895 2.62917M10.5896 2.62913L24.5236 18.8805C24.4481 18.8848 24.3727 18.8799 24.299 18.8657C24.299 18.8657 24.299 18.8657 24.2989 18.8657L21.3064 18.2887L21.3064 18.2887C21.1289 18.2545 20.9658 18.1679 20.838 18.0401L20.7949 17.9971L20.6889 17.891L20.5828 17.9971L4.74054 33.8393L4.84661 33.9454L4.74052 33.8393C4.56391 34.016 4.33257 34.1043 4.10087 34.1043C3.86919 34.1043 3.6379 34.016 3.4612 33.8393L0.414984 30.7931C0.0616672 30.4398 0.0616799 29.8669 0.414975 29.5137L0.414984 29.5137L16.2574 13.6714L16.3634 13.5653L16.2574 13.4592L16.1403 13.3422C15.787 12.9888 15.787 12.416 16.1403 12.0628L16.1403 12.0627L19.1638 9.03917L19.2708 8.93219L19.1629 8.82614C18.08 7.76157 16.7402 6.97333 15.2831 6.54435L11.2876 5.36802L11.2876 5.36802C10.7252 5.20247 10.304 4.76552 10.1592 4.19728C10.0143 3.62907 10.1749 3.04385 10.5895 2.62917M10.5896 2.62913C10.5895 2.62914 10.5895 2.62915 10.5895 2.62917M10.5896 2.62913L10.5895 2.62917M27.0402 21.8268C26.8575 21.6441 26.7616 21.3919 26.7768 21.134L27.0402 21.8268ZM3.99488 31.8141L4.10094 31.9202L4.20701 31.8141L7.53497 28.4861L7.64103 28.3801L7.53497 28.274L5.98029 26.7193L5.87422 26.6133L5.76816 26.7193L2.4402 30.0473L2.33413 30.1534L2.4402 30.2594L3.99488 31.8141ZM19.3035 16.7176L19.4096 16.6115L19.3035 16.5054L18.5445 15.7464L17.7488 14.9508L17.6428 14.8447L17.5367 14.9508L7.2597 25.2278L7.15363 25.3338L7.2597 25.4399L8.81438 26.9946L8.92044 27.1007L9.02651 26.9946L19.3035 16.7176ZM18.1654 12.5964L18.0594 12.7025L18.1654 12.8086L21.8888 16.532L21.9213 16.5645L21.9664 16.5732L24.0918 16.983L24.17 16.998L24.2263 16.9417L28.5798 12.5883L28.6361 12.532L28.6211 12.4538L28.2113 10.3283L28.2026 10.2831L28.1701 10.2506L24.3392 6.41968C22.508 4.58857 19.9735 3.60215 17.387 3.71414C17.387 3.71414 17.387 3.71414 17.387 3.71414L13.6568 3.87501L13.6209 4.16877L15.794 4.80861C17.5654 5.33027 19.1921 6.29623 20.4979 7.60192L21.1892 8.29323C21.5425 8.64654 21.5425 9.21939 21.1892 9.57263L21.1892 9.57264L18.1654 12.5964ZM29.6942 21.9218L29.8002 22.0278L29.9063 21.9218L33.5599 18.268L33.666 18.162L33.5599 18.0559L32.4913 16.9872L32.4513 16.9472L32.3948 16.9436C31.4445 16.8825 30.5407 16.478 29.86 15.7973L29.86 15.7973C29.5767 15.5141 29.3414 15.1918 29.1585 14.8437L29.0638 14.6633L28.9197 14.8074L26.4457 17.2814L26.3016 17.4255L26.482 17.5203C26.83 17.7031 27.152 17.9384 27.4355 18.2218L27.5416 18.1158L27.4355 18.2219C28.1161 18.9024 28.5207 19.8064 28.5819 20.7567L28.5855 20.8131L28.6255 20.8531L29.6942 21.9218Z" fill="#1A1D1E" stroke="#FCFEFF" stroke-width="0.3"/>
</g>
<defs>
<clipPath id="clip0_0_62">
<rect width="36" height="36" fill="white"/>
</clipPath>
</defs>
</svg>
