<svg width="36" height="36" viewBox="0 0 36 36" fill="none" xmlns="http://www.w3.org/2000/svg">
<g clip-path="url(#clip0_0_28)">
<path d="M25.7609 5.18242C23.7398 3.1326 21.0426 1.97983 18.1664 1.93673C15.2472 1.89398 12.4743 3.01181 10.3674 5.08743C8.26137 7.162 7.10156 9.91312 7.10156 12.8339C7.10156 15.6444 8.16855 18.3129 10.1059 20.3478C10.3655 20.6204 10.5084 20.9821 10.5084 21.3664V24.4492C10.5084 25.7517 11.4431 26.8394 12.6768 27.0784V29.4677C12.6768 32.4029 15.0648 34.7909 18 34.7909C20.9352 34.7909 23.3232 32.4029 23.3232 29.4677V27.0784C24.5569 26.8394 25.4916 25.7518 25.4916 24.4492V21.3664C25.4916 20.983 25.6388 20.6167 25.9061 20.3351C27.8357 18.302 28.8984 15.638 28.8984 12.8338C28.8984 9.95179 27.7841 7.23449 25.7609 5.18242ZM18 32.6816C16.2279 32.6816 14.7862 31.2398 14.7862 29.4677V27.1277H21.2138V29.4677C21.2138 31.2398 19.7721 32.6816 18 32.6816ZM18 15.6259L16.9835 13.8652L18 12.4344L19.0165 13.8652L18 15.6259ZM24.3761 18.883C23.7352 19.5583 23.3822 20.4402 23.3822 21.3664V24.4492C23.3822 24.763 23.1269 25.0183 22.8132 25.0183H19.0547V18.0178L23.0253 11.1406C23.3166 10.6361 23.1438 9.99102 22.6393 9.69986C22.1348 9.40849 21.4898 9.58138 21.1986 10.0859L20.1766 11.856L18.8599 10.0024C18.6621 9.72391 18.3416 9.55853 18 9.55853C17.6584 9.55853 17.338 9.72398 17.1401 10.0024L15.8234 11.856L14.8014 10.0859C14.5101 9.58138 13.8652 9.40856 13.3607 9.69986C12.8562 9.9911 12.6834 10.6361 12.9747 11.1406L16.9453 18.0178V25.0183H13.1868C12.8731 25.0183 12.6178 24.763 12.6178 24.4492V21.3664C12.6178 20.4381 12.2683 19.5597 11.6336 18.8933C10.0714 17.2524 9.21094 15.1004 9.21094 12.8339C9.21094 10.4826 10.1474 8.26506 11.8477 6.59008C13.517 4.94554 15.6979 4.04484 18.002 4.04484C18.0462 4.04484 18.0906 4.04519 18.1348 4.04582C20.4539 4.08063 22.6288 5.0103 24.2589 6.66349C25.8905 8.31822 26.7891 10.5096 26.7891 12.8338C26.7891 15.0952 25.9321 17.2435 24.3761 18.883Z" fill="#1A1D1E"/>
<path fill-rule="evenodd" clip-rule="evenodd" d="M10.5286 5.25113C8.46587 7.2831 7.33135 9.97549 7.33135 12.8339C7.33135 15.5855 8.37566 18.1972 10.2724 20.1894C10.5735 20.5056 10.7382 20.9245 10.7382 21.3664V24.4492C10.7382 25.6393 11.5925 26.6343 12.7205 26.8528L12.9066 26.8888V29.4677C12.9066 32.276 15.1917 34.5612 18 34.5612C20.8083 34.5612 23.0934 32.276 23.0934 29.4677V26.8888L23.2795 26.8528C24.4075 26.6343 25.2618 25.6394 25.2618 24.4492V21.3664C25.2618 20.9233 25.4322 20.5006 25.7394 20.1769L25.9061 20.3351C25.6388 20.6167 25.4916 20.983 25.4916 21.3664V24.4492C25.4916 25.7518 24.5569 26.8394 23.3232 27.0784V29.4677C23.3232 32.4029 20.9352 34.7909 18 34.7909C15.0648 34.7909 12.6768 32.4029 12.6768 29.4677V27.0784C11.4431 26.8394 10.5084 25.7517 10.5084 24.4492V21.3664C10.5084 20.9821 10.3655 20.6204 10.1059 20.3478C8.16855 18.3129 7.10156 15.6444 7.10156 12.8339C7.10156 9.91312 8.26137 7.162 10.3674 5.08743C12.4743 3.01181 15.2472 1.89398 18.1664 1.93673C21.0426 1.97983 23.7398 3.1326 25.7609 5.18242C27.7841 7.23449 28.8984 9.95179 28.8984 12.8338C28.8984 15.638 27.8357 18.302 25.9061 20.3351L25.7394 20.1769C27.6285 18.1865 28.6687 15.5791 28.6687 12.8338C28.6687 10.0122 27.5781 7.35283 25.5973 5.34376C23.6185 3.33686 20.9789 2.20871 18.1631 2.16649M14.5564 26.8979H21.4436V29.4677C21.4436 31.3667 19.899 32.9114 18 32.9114C16.101 32.9114 14.5564 31.3667 14.5564 29.4677V26.8979ZM18 16.0854L16.7107 13.8524L18 12.0376L19.2893 13.8524L18 16.0854ZM18.8249 25.2481V17.9563L22.8263 11.0257C23.0542 10.6311 22.919 10.1266 22.5244 9.89888C22.1299 9.671 21.6253 9.80618 21.3976 10.2007L20.1966 12.2809L18.6725 10.1355C18.5178 9.9177 18.2673 9.78832 18 9.78832C17.7328 9.78832 17.4823 9.9177 17.3275 10.1355C17.3275 10.1355 17.3275 10.1355 17.3275 10.1355L15.8034 12.2809L14.6024 10.2008C14.6024 10.2008 14.6024 10.2008 14.6024 10.2008C14.3746 9.80618 13.8702 9.67103 13.4756 9.89886C13.081 10.1266 12.9459 10.6311 13.1737 11.0257L17.1751 17.9563V25.2481H13.1868C12.7462 25.2481 12.388 24.8899 12.388 24.4492V21.3664C12.388 20.4965 12.0608 19.675 11.4672 19.0518C9.86425 17.3681 8.98115 15.1594 8.98115 12.8339C8.98115 10.42 9.943 8.14383 11.6865 6.42639C13.398 4.74021 15.6365 3.81505 18.002 3.81505C18.0474 3.81505 18.0929 3.81541 18.1381 3.81606C20.5176 3.85177 22.7501 4.80607 24.4225 6.50215C26.0965 8.19989 27.0189 10.4492 27.0189 12.8338C27.0189 15.1541 26.1393 17.359 24.5428 19.0412C23.9421 19.674 23.612 20.4994 23.612 21.3664V24.4492C23.612 24.8899 23.2538 25.2481 22.8132 25.2481H18.8249ZM17.1401 10.0024C17.338 9.72398 17.6584 9.55853 18 9.55853C18.3416 9.55853 18.6621 9.72391 18.8599 10.0024L20.1766 11.856L21.1986 10.0859C21.4898 9.58138 22.1348 9.40849 22.6393 9.69986C23.1438 9.99102 23.3166 10.6361 23.0253 11.1406L19.0547 18.0178V25.0183H22.8132C23.1269 25.0183 23.3822 24.763 23.3822 24.4492V21.3664C23.3822 20.4402 23.7352 19.5583 24.3761 18.883C25.9321 17.2435 26.7891 15.0952 26.7891 12.8338C26.7891 10.5096 25.8905 8.31822 24.2589 6.66349C22.6288 5.0103 20.4539 4.08063 18.1348 4.04582C18.0906 4.04519 18.0462 4.04484 18.002 4.04484C15.6979 4.04484 13.517 4.94554 11.8477 6.59008C10.1474 8.26506 9.21094 10.4826 9.21094 12.8339C9.21094 15.1004 10.0714 17.2524 11.6336 18.8933C12.2683 19.5597 12.6178 20.4381 12.6178 21.3664V24.4492C12.6178 24.763 12.8731 25.0183 13.1868 25.0183H16.9453V18.0178L12.9747 11.1406C12.6834 10.6361 12.8562 9.99109 13.3607 9.69986C13.8652 9.40856 14.5101 9.58138 14.8014 10.0859L15.8234 11.856L17.1401 10.0024ZM10.5286 5.25113C12.5922 3.2182 15.3061 2.12467 18.1631 2.16649L10.5286 5.25113ZM18 15.6259L19.0165 13.8652L18 12.4344L16.9835 13.8652L18 15.6259ZM14.7862 29.4677C14.7862 31.2398 16.2279 32.6816 18 32.6816C19.7721 32.6816 21.2138 31.2398 21.2138 29.4677V27.1277H14.7862V29.4677Z" fill="#FCFEFF"/>
<path d="M5.41694 5.15062C5.62289 5.35656 5.89282 5.45957 6.16268 5.45957C6.43254 5.45957 6.70254 5.35656 6.90841 5.15062C7.3203 4.73879 7.3203 4.07097 6.90841 3.65908L4.76725 1.51785C4.35543 1.10603 3.68761 1.10603 3.27571 1.51785C2.86382 1.92967 2.86382 2.5975 3.27571 3.00939L5.41694 5.15062Z" fill="#1A1D1E"/>
<path fill-rule="evenodd" clip-rule="evenodd" d="M6.74594 4.98812C7.06807 4.66604 7.06809 4.14372 6.74593 3.82156L4.60477 1.68033C4.60477 1.68033 4.60477 1.68033 4.60477 1.68033C4.28269 1.35826 3.76035 1.35824 3.43819 1.68035C3.11606 2.00242 3.11604 2.52474 3.4382 2.8469L5.57943 4.98813C5.74056 5.14927 5.95129 5.22978 6.16268 5.22978C6.37408 5.22978 6.5849 5.14921 6.74594 4.98812ZM6.90841 3.65908L4.76725 1.51785C4.35543 1.10603 3.68761 1.10603 3.27571 1.51785C2.86382 1.92967 2.86382 2.5975 3.27571 3.00939L5.41694 5.15062C5.62289 5.35656 5.89282 5.45957 6.16268 5.45957C6.43254 5.45957 6.70254 5.35656 6.90841 5.15062C7.3203 4.73879 7.3203 4.07097 6.90841 3.65908Z" fill="#FCFEFF"/>
<path d="M5.13752 12.793C5.13752 12.2105 4.6653 11.7383 4.08284 11.7383H1.05469C0.472219 11.7383 0 12.2105 0 12.793C0 13.3754 0.472219 13.8477 1.05469 13.8477H4.08284C4.66537 13.8477 5.13752 13.3754 5.13752 12.793Z" fill="#1A1D1E"/>
<path fill-rule="evenodd" clip-rule="evenodd" d="M4.90774 12.793C4.90774 12.3374 4.5384 11.9681 4.08284 11.9681H1.05469C0.599127 11.9681 0.229787 12.3374 0.229787 12.793C0.229787 13.2485 0.599127 13.6179 1.05469 13.6179H4.08284C4.53846 13.6179 4.90774 13.2485 4.90774 12.793ZM4.08284 11.7383C4.6653 11.7383 5.13752 12.2105 5.13752 12.793C5.13752 13.3754 4.66537 13.8477 4.08284 13.8477H1.05469C0.472219 13.8477 0 13.3754 0 12.793C0 12.2105 0.472219 11.7383 1.05469 11.7383H4.08284Z" fill="#FCFEFF"/>
<path d="M5.19233 20.5277L3.05111 22.669C2.63921 23.0809 2.63921 23.7486 3.05111 24.1605C3.25705 24.3665 3.52698 24.4695 3.79684 24.4695C4.0667 24.4695 4.3367 24.3665 4.54257 24.1605L6.6838 22.0192C7.09569 21.6073 7.09569 20.9396 6.6838 20.5277C6.27198 20.1157 5.60415 20.1158 5.19233 20.5277Z" fill="#1A1D1E"/>
<path fill-rule="evenodd" clip-rule="evenodd" d="M5.35483 20.6902L5.35482 20.6902L3.21359 22.8315L3.21359 22.8315C2.89144 23.1536 2.89144 23.6759 3.21359 23.998L3.21362 23.9981C3.37472 24.1592 3.58542 24.2397 3.79684 24.2397C4.00824 24.2397 4.21902 24.1592 4.38006 23.9981L4.38009 23.998L6.52131 21.8568L6.52132 21.8567C6.84347 21.5346 6.84347 21.0123 6.52132 20.6902L6.52129 20.6902C6.19923 20.368 5.67693 20.368 5.35483 20.6902ZM3.05111 22.669L5.19233 20.5277C5.60415 20.1158 6.27198 20.1157 6.6838 20.5277C7.09569 20.9396 7.09569 21.6073 6.6838 22.0192L4.54257 24.1605C4.3367 24.3665 4.0667 24.4695 3.79684 24.4695C3.52698 24.4695 3.25705 24.3665 3.05111 24.1605C2.63921 23.7486 2.63921 23.0809 3.05111 22.669Z" fill="#FCFEFF"/>
<path d="M30.5837 20.7542C30.1718 20.3424 29.504 20.3424 29.0921 20.7542C28.6802 21.166 28.6802 21.8338 29.0921 22.2457L31.2333 24.3869C31.4393 24.5929 31.7092 24.6959 31.9791 24.6959C32.2489 24.6959 32.5189 24.5929 32.7248 24.3869C33.1367 23.9751 33.1367 23.3073 32.7248 22.8954L30.5837 20.7542Z" fill="#1A1D1E"/>
<path fill-rule="evenodd" clip-rule="evenodd" d="M32.7248 24.3869C33.1367 23.9751 33.1367 23.3073 32.7248 22.8954L30.5837 20.7542C30.1718 20.3424 29.504 20.3424 29.0921 20.7542C28.6802 21.166 28.6802 21.8338 29.0921 22.2457L31.2333 24.3869C31.4393 24.5929 31.7092 24.6959 31.9791 24.6959C32.2489 24.6959 32.5189 24.5929 32.7248 24.3869ZM32.5623 24.2245L32.5623 24.2244C32.8845 23.9024 32.8845 23.38 32.5623 23.0579L32.5623 23.0579L30.4212 20.9167C30.0991 20.5946 29.5768 20.5946 29.2546 20.9167C28.9325 21.2387 28.9324 21.7611 29.2546 22.0832L31.3958 24.2245C31.557 24.3856 31.7677 24.4661 31.9791 24.4661C32.1905 24.4661 32.4013 24.3856 32.5623 24.2245Z" fill="#FCFEFF"/>
<path d="M34.9461 12.0566H31.918C31.3355 12.0566 30.8633 12.5289 30.8633 13.1113C30.8633 13.6938 31.3355 14.166 31.918 14.166H34.9461C35.5286 14.166 36.0008 13.6938 36.0008 13.1113C36.0008 12.5289 35.5286 12.0566 34.9461 12.0566Z" fill="#1A1D1E"/>
<path fill-rule="evenodd" clip-rule="evenodd" d="M34.9461 12.2864H31.918C31.4624 12.2864 31.0931 12.6558 31.0931 13.1113C31.0931 13.5669 31.4624 13.9362 31.918 13.9362H34.9461C35.4017 13.9362 35.771 13.5669 35.771 13.1113C35.771 12.6558 35.4017 12.2864 34.9461 12.2864ZM31.918 12.0566H34.9461C35.5286 12.0566 36.0008 12.5289 36.0008 13.1113C36.0008 13.6938 35.5286 14.166 34.9461 14.166H31.918C31.3355 14.166 30.8633 13.6938 30.8633 13.1113C30.8633 12.5289 31.3355 12.0566 31.918 12.0566Z" fill="#FCFEFF"/>
<path d="M30.0625 5.6843C30.3325 5.6843 30.6024 5.58129 30.8083 5.37535L32.9495 3.23405C33.3614 2.82216 33.3614 2.1544 32.9495 1.74251C32.5377 1.33055 31.8698 1.33069 31.458 1.74251L29.3167 3.88381C28.9048 4.2957 28.9048 4.96346 29.3167 5.37535C29.5227 5.58136 29.7926 5.6843 30.0625 5.6843Z" fill="#1A1D1E"/>
<path fill-rule="evenodd" clip-rule="evenodd" d="M30.6458 5.21289L30.6458 5.21287L32.787 3.07157L32.787 3.07157C33.1092 2.74941 33.1092 2.22715 32.787 1.905L32.787 1.90497C32.4649 1.58282 31.9426 1.58287 31.6204 1.90501L29.4792 4.04629L29.4792 4.04629C29.1571 4.36845 29.1571 4.89071 29.4792 5.21286L29.4792 5.21289C29.6403 5.37404 29.851 5.45451 30.0625 5.45451C30.274 5.45451 30.4847 5.37399 30.6458 5.21289ZM31.458 1.74251C31.8698 1.33069 32.5377 1.33055 32.9495 1.74251C33.3614 2.1544 33.3614 2.82216 32.9495 3.23405L30.8083 5.37535C30.6024 5.58129 30.3325 5.6843 30.0625 5.6843C29.7926 5.6843 29.5227 5.58136 29.3167 5.37535C28.9048 4.96346 28.9048 4.2957 29.3167 3.88381L31.458 1.74251Z" fill="#FCFEFF"/>
</g>
<defs>
<clipPath id="clip0_0_28">
<rect width="36" height="36" fill="white"/>
</clipPath>
</defs>
</svg>
