<svg width="20" height="20" viewBox="0 0 20 20" fill="none" xmlns="http://www.w3.org/2000/svg">
<g clip-path="url(#clip0_0_398)">
<path d="M7.5 10C8.48891 10 9.45561 9.70676 10.2779 9.15735C11.1001 8.60794 11.741 7.82705 12.1194 6.91342C12.4978 5.99979 12.5969 4.99446 12.4039 4.02455C12.211 3.05465 11.7348 2.16373 11.0355 1.46447C10.3363 0.765206 9.44536 0.289002 8.47545 0.0960758C7.50555 -0.0968503 6.50021 0.00216643 5.58658 0.380605C4.67295 0.759043 3.89206 1.39991 3.34265 2.22215C2.79324 3.0444 2.5 4.0111 2.5 5C2.50132 6.32568 3.02853 7.59668 3.96593 8.53407C4.90332 9.47147 6.17432 9.99868 7.5 10ZM7.5 1.66667C8.15927 1.66667 8.80374 1.86217 9.3519 2.22844C9.90006 2.59471 10.3273 3.1153 10.5796 3.72439C10.8319 4.33348 10.8979 5.0037 10.7693 5.6503C10.6407 6.29691 10.3232 6.89085 9.85702 7.35703C9.39085 7.8232 8.79691 8.14067 8.1503 8.26929C7.5037 8.3979 6.83348 8.33189 6.22439 8.0796C5.6153 7.82731 5.09471 7.40007 4.72843 6.8519C4.36216 6.30374 4.16667 5.65927 4.16667 5C4.16667 4.11595 4.51786 3.2681 5.14298 2.64298C5.7681 2.01786 6.61595 1.66667 7.5 1.66667Z" fill="#242A2D"/>
<path d="M7.5 11.666C5.51162 11.6684 3.60538 12.4594 2.19938 13.8654C0.793381 15.2714 0.0024258 17.1776 0 19.166C0 19.387 0.0877974 19.599 0.244078 19.7552C0.400358 19.9115 0.61232 19.9993 0.833333 19.9993C1.05435 19.9993 1.26631 19.9115 1.42259 19.7552C1.57887 19.599 1.66667 19.387 1.66667 19.166C1.66667 17.6189 2.28125 16.1352 3.37521 15.0412C4.46917 13.9473 5.9529 13.3327 7.5 13.3327C9.0471 13.3327 10.5308 13.9473 11.6248 15.0412C12.7188 16.1352 13.3333 17.6189 13.3333 19.166C13.3333 19.387 13.4211 19.599 13.5774 19.7552C13.7337 19.9115 13.9457 19.9993 14.1667 19.9993C14.3877 19.9993 14.5996 19.9115 14.7559 19.7552C14.9122 19.599 15 19.387 15 19.166C14.9976 17.1776 14.2066 15.2714 12.8006 13.8654C11.3946 12.4594 9.48838 11.6684 7.5 11.666Z" fill="#242A2D"/>
<path d="M18.3338 6.5625C17.8701 6.5856 17.4343 6.79147 17.122 7.13506C16.8096 7.47864 16.6461 7.93197 16.6672 8.39583C16.6882 7.93197 16.5247 7.47864 16.2124 7.13506C15.9 6.79147 15.4643 6.5856 15.0005 6.5625C14.5367 6.5856 14.101 6.79147 13.7887 7.13506C13.4763 7.47864 13.3128 7.93197 13.3338 8.39583C13.3338 9.8375 15.2138 11.5267 16.1505 12.2783C16.2971 12.3957 16.4793 12.4597 16.6672 12.4597C16.855 12.4597 17.0372 12.3957 17.1838 12.2783C18.1205 11.5283 20.0005 9.8375 20.0005 8.39583C20.0216 7.93197 19.858 7.47864 19.5457 7.13506C19.2333 6.79147 18.7976 6.5856 18.3338 6.5625Z" fill="#242A2D"/>
</g>
<defs>
<clipPath id="clip0_0_398">
<rect width="20" height="20" fill="white"/>
</clipPath>
</defs>
</svg>
